<?xml version="1.0" encoding="UTF-8" standalone="no"?>
<!-- Created with Inkscape (http://www.inkscape.org/) -->

<svg
   version="1.1"
   id="svg132"
   width="157.14581"
   height="55.234386"
   viewBox="0 0 157.14581 55.234385"
   sodipodi:docname="Audi.ai"
   xmlns:inkscape="http://www.inkscape.org/namespaces/inkscape"
   xmlns:sodipodi="http://sodipodi.sourceforge.net/DTD/sodipodi-0.dtd"
   xmlns="http://www.w3.org/2000/svg"
   xmlns:svg="http://www.w3.org/2000/svg">
  <defs
     id="defs136" />
  <sodipodi:namedview
     id="namedview134"
     pagecolor="#505050"
     bordercolor="#eeeeee"
     borderopacity="1"
     inkscape:showpageshadow="0"
     inkscape:pageopacity="0"
     inkscape:pagecheckerboard="0"
     inkscape:deskcolor="#505050"
     showgrid="false" />
  <g
     id="g140"
     inkscape:groupmode="layer"
     inkscape:label="Page 1"
     transform="matrix(1.3333333,0,0,-1.3333333,-15.815107,142.25782)">
    <g
       id="g142"
       transform="scale(1,-1)">
      <path
         d="m 96.35254,-49.2168 c -0.4541,0 -0.82422,0.36914 -0.82422,0.82325 0,0 0,12.90429 0,12.90429 0,0.4541 0.37012,0.82422 0.82422,0.82422 0,0 4.14258,0 4.14258,0 0.4541,0 0.82324,-0.37012 0.82324,-0.82422 0,0 0,-12.90429 0,-12.90429 0,-0.45411 -0.36914,-0.82325 -0.82324,-0.82325 0,0 -4.14258,0 -4.14258,0 z m -11.68848,7.18946 c 0,-1.29688 1.10645,-2.35254 2.46778,-2.35254 1.35058,0 2.44921,1.05566 2.44921,2.35254 0,1.29199 -1.09863,2.34375 -2.44921,2.34375 -1.36133,0 -2.46778,-1.05176 -2.46778,-2.34375 z m 0.03516,-11.84571 c -0.29199,0 -0.56543,0.15723 -0.71192,0.41016 -0.07324,0.12598 -0.11132,0.26855 -0.11132,0.41406 0,0.14258 0.03711,0.28418 0.10742,0.4082 9.8e-4,0 1.09765,1.92188 1.70215,2.98047 -3.71875,0.66114 -6.52637,3.87207 -6.52637,7.63282 0,4.2666 3.57617,7.7373 7.97266,7.7373 4.40234,0 7.98339,-3.4707 7.98339,-7.7373 0,-1.61719 -0.50683,-3.16016 -1.46484,-4.4668 -0.01465,-0.02637 -3.98242,-6.96387 -3.98242,-6.96387 -0.14649,-0.25586 -0.4209,-0.41504 -0.71582,-0.41504 0,0 -4.25293,0 -4.25293,0 z m -32.05567,8.53711 c 0.35059,0.67774 1.18555,2.2959 1.53711,2.97852 -0.91503,0 -2.23046,0 -3.16601,0 0.45312,-0.8291 1.16797,-2.13477 1.6289,-2.97852 z m -3.25195,-8.70019 c -0.41015,0 -0.76074,0.30664 -0.8164,0.71289 0,0 -0.5127,3.74804 -0.60254,4.41113 -0.10059,0.17383 -7.45118,13.01367 -7.45118,13.01367 -0.07031,0.12403 -0.10839,0.26563 -0.10839,0.40918 0,0.14551 0.03808,0.28809 0.11132,0.41309 0.14649,0.25293 0.41993,0.41113 0.71289,0.41113 0,0 5.12403,0 5.12403,0 0.30176,0 0.57812,-0.16504 0.72265,-0.42969 0,0 0.81641,-1.49609 1.04493,-1.91406 0.56152,0 8.17187,0 8.75586,0 0.21777,0.43652 0.93945,1.88672 0.93945,1.88672 0.13965,0.28125 0.42285,0.45703 0.7373,0.45703 0,0 4.92578,0 4.92578,0 0.28614,0 0.55567,-0.15234 0.70411,-0.39551 0.0791,-0.13086 0.11914,-0.28027 0.11914,-0.42871 0,-0.13086 -0.03028,-0.26074 -0.0918,-0.3789 0,0 -0.3584,-0.69239 -0.3584,-0.69239 0,0 -0.16699,-0.32129 -0.17383,-0.33398 0.48926,0.49707 1.06446,0.94922 1.71387,1.33008 1.3584,0.79882 2.91406,1.23828 4.38086,1.23828 0.58984,0 1.20801,-0.05371 1.83789,-0.16113 0.0029,0 0.0059,-9.8e-4 0.0088,-9.8e-4 1.66797,-0.3125 3.18457,-1.03418 4.26953,-2.03223 1.26172,-1.16211 1.92481,-2.65137 1.91602,-4.30762 0,0 0,-7.60156 0,-7.60156 0,-0.4541 -0.36914,-0.82324 -0.82422,-0.82324 0,0 -4.2041,0 -4.2041,0 -0.45411,0 -0.82325,0.36914 -0.82325,0.82324 0,0 0,6.20801 0,6.20801 0,1.12891 -0.58984,1.69531 -0.9414,1.93164 -0.3291,0.21777 -0.72168,0.33887 -1.10352,0.33887 -1.25976,0 -2.04297,-0.92383 -2.04297,-2.41113 0,0 0,-6.06739 0,-6.06739 0,-0.4541 -0.36914,-0.82324 -0.82324,-0.82324 0,0 -4.28418,0 -4.28418,0 -0.4541,0 -0.82324,0.36914 -0.82324,0.82324 0,0 0,7.66895 0,7.66895 0,0.20215 0.0166,0.40332 0.04199,0.60254 -2.33301,-4.47657 -7.00097,-13.43457 -7.00097,-13.43457 -0.14258,-0.27344 -0.42188,-0.44336 -0.73047,-0.44336 0,0 -4.86231,0 -4.86231,0 z m 59.68848,-46.45117 c 0.0254,4.8e-4 0.6748,0.0142 0.7168,0.0146 0.7666,0.0816 1.49121,0.15918 2.21582,0.29834 1.9121,0.43409 3.56543,1.13135 5.19921,2.19336 1.58008,1.10108 2.82911,2.35059 3.92969,3.92969 0.79688,1.24072 1.38574,2.46338 1.85352,3.84522 0.29004,1.02148 0.47363,1.92382 0.57519,2.83789 0.0478,0.49609 0.0713,0.97753 0.0713,1.46289 0,0.4873 -0.0234,0.97558 -0.0732,1.49218 -0.0664,0.60303 -0.18164,1.26514 -0.37109,2.13623 -0.39942,1.36573 -0.92969,2.6084 -1.66895,3.90723 -0.43555,0.69238 -0.81836,1.23438 -1.20703,1.70361 -0.58399,0.69385 -1.25488,1.36524 -1.99121,1.99219 -0.90235,0.71924 -1.8711,1.34131 -2.96094,1.90039 -0.8623,0.39844 -1.73633,0.72461 -2.66894,0.9961 -1.32813,0.29004 -2.51563,0.43798 -3.62891,0.45214 -1.12207,-0.01416 -2.27246,-0.15771 -3.61524,-0.45166 -1.36425,-0.39648 -2.65234,-0.94335 -3.93652,-1.67138 -0.0127,-0.0073 -0.041,-0.02442 -0.0488,-0.0293 -0.009,-0.0054 -0.16211,-0.10351 -0.22363,-0.14258 0.60547,-0.86426 1.15332,-1.76611 1.62402,-2.70508 1.50098,-2.99658 2.26172,-6.21826 2.26172,-9.57568 0,-4.35596 -1.31738,-8.56787 -3.80859,-12.18164 -0.0215,-0.03174 -0.0488,-0.06006 -0.0742,-0.08838 1.08789,-0.68408 2.19043,-1.2041 3.52148,-1.66113 1.46875,-0.41455 2.83887,-0.62305 4.3086,-0.65527 z m -12.75488,7.57226 c 0.48242,0.89746 0.87402,1.7876 1.18359,2.70996 0.29004,1.02149 0.47461,1.92285 0.58105,2.83399 0.04493,0.50146 0.06641,0.98046 0.06641,1.46484 0,0.4873 -0.02148,0.97559 -0.06738,1.49219 -0.08106,0.72412 -0.23535,1.48144 -0.375,2.13867 -0.34766,1.18506 -0.79688,2.28271 -1.39746,3.41162 -0.02735,-0.0459 -0.05567,-0.0918 -0.07227,-0.11816 -0.32812,-0.67237 -0.61328,-1.30274 -0.86816,-1.9253 -0.57715,-1.73632 -0.85743,-3.3872 -0.85743,-5.04638 0,-0.46582 0.02247,-0.9458 0.06641,-1.4253 0.19531,-1.70752 0.61133,-3.19287 1.34668,-4.81298 0.12988,-0.25049 0.2627,-0.49073 0.39356,-0.72315 z m -3.67188,-5.26953 c -0.0068,0.0068 -0.01465,0.01465 -0.0166,0.01709 0,0 0.0088,-0.0098 0.01172,-0.01172 9.7e-4,-0.002 0.0039,-0.0034 0.0049,-0.0054 z m 7.50195,-0.0918 c 0,0 -9.7e-4,4.9e-4 -9.7e-4,4.9e-4 0,0 9.7e-4,-4.9e-4 9.7e-4,-4.9e-4 z M 83.5957,-100.4873 c 0.02539,4.8e-4 0.67481,0.0142 0.71582,0.0146 0.76563,0.0811 1.48828,0.1587 2.2168,0.29834 1.76172,0.39893 3.31445,1.03614 4.86621,1.99121 -2.52539,3.61475 -3.86035,7.85987 -3.86035,12.28223 0,4.41602 1.33008,8.65381 3.8457,12.26318 -0.48925,0.31299 -0.98828,0.60694 -1.49316,0.86426 -0.85645,0.39698 -1.73242,0.72266 -2.67578,0.9961 -1.3252,0.29004 -2.51074,0.43798 -3.62403,0.45214 -1.125,-0.01416 -2.27734,-0.1582 -3.62109,-0.45214 -1.37109,-0.39991 -2.62012,-0.92969 -3.92578,-1.66651 -0.02246,-0.01465 -0.14063,-0.08935 -0.14063,-0.08935 0,0 -0.05957,-0.03858 -0.11816,-0.07715 0.0088,-0.0127 0.01758,-0.0249 0.02637,-0.0376 2.51367,-3.63818 3.84277,-7.875 3.84277,-12.25293 0,-4.36328 -1.3291,-8.59375 -3.84277,-12.23389 0,0 -0.0088,-0.0098 -0.02149,-0.02441 -9.7e-4,-9.8e-4 -9.7e-4,-0.0019 -0.0019,-0.0029 0,0 -0.0078,-0.01172 -0.0088,-0.01367 1.1084,-0.68213 2.23145,-1.21338 3.51074,-1.65674 1.47266,-0.41406 2.84278,-0.62256 4.30957,-0.65478 z m -12.74316,7.57861 c 0.45898,0.83154 0.85254,1.71973 1.19043,2.70556 0.29004,1.02735 0.47266,1.92872 0.57422,2.83497 0.04785,0.49609 0.07129,0.97753 0.07129,1.46289 0,0.4873 -0.02344,0.97558 -0.07325,1.49218 -0.08007,0.72071 -0.2246,1.45362 -0.37011,2.1377 -0.34864,1.18848 -0.79785,2.28613 -1.39649,3.41211 -0.02832,-0.0459 -0.05468,-0.08887 -0.06933,-0.11377 -0.35547,-0.72949 -0.63379,-1.34424 -0.87207,-1.9292 -0.57618,-1.73682 -0.85743,-3.39063 -0.85743,-5.05469 0,-0.46338 0.02247,-0.94043 0.06543,-1.41845 0.19825,-1.71045 0.61524,-3.19629 1.35157,-4.81543 0.11816,-0.22998 0.24609,-0.46534 0.38574,-0.71387 z m 3.77051,-5.50244 c 0,0 0,0 0,0 0,0 0,0 0,0 z m -16.49512,-2.07617 c 0.02441,4.8e-4 0.67285,0.0142 0.71484,0.0146 0.76563,0.0811 1.49024,0.1587 2.2168,0.29834 1.79688,0.40381 3.34473,1.03809 4.86621,1.99024 -0.01074,0.01611 -0.02246,0.03174 -0.03418,0.04834 -2.50293,3.62402 -3.82519,7.85498 -3.82519,12.23486 0,0 0,0 0,0 0,4.38721 1.32129,8.61035 3.81933,12.21338 0.0098,0.01514 0.02246,0.03418 0.02246,0.03418 0,0 0.0127,0.01904 0.0127,0.01904 9.8e-4,9.8e-4 0.0019,0.0015 0.0019,0.002 -0.50488,0.32373 -1,0.60742 -1.5039,0.85839 -0.86329,0.40039 -1.74219,0.72608 -2.68555,0.99561 -1.3086,0.29053 -2.49219,0.43896 -3.61621,0.45264 -1.12207,-0.01368 -2.27246,-0.15772 -3.61817,-0.45215 -1.37304,-0.39844 -2.625,-0.93067 -3.93945,-1.67334 -0.0039,-0.002 -0.0078,-0.0039 -0.01074,-0.0059 -0.07715,-0.04151 -0.15137,-0.08936 -0.23731,-0.15039 0.01368,-0.01904 0.02832,-0.03809 0.04102,-0.05713 2.50586,-3.59766 3.83105,-7.8291 3.83105,-12.23633 0,-4.37988 -1.3125,-8.59717 -3.79394,-12.19531 -0.02344,-0.03369 -0.05078,-0.06201 -0.07715,-0.09131 1.1416,-0.70068 2.26074,-1.22656 3.50391,-1.64404 1.4707,-0.41455 2.84179,-0.62305 4.31152,-0.65576 z m -13.55762,24.37158 c 0,0 0,0 0,0 0,0 0,0 0,0 z m 0.8125,-16.81885 c 0.45117,0.84277 0.84473,1.73877 1.19239,2.7334 0.29003,1.02246 0.47265,1.92187 0.57324,2.82861 0.04785,0.50244 0.07129,0.98242 0.07129,1.46729 0,0.48828 -0.02344,0.97705 -0.07129,1.49365 -0.08106,0.74805 -0.2334,1.49805 -0.37207,2.13428 -0.34961,1.18994 -0.79981,2.29248 -1.4043,3.42822 -0.03516,-0.05713 -0.06348,-0.10449 -0.07812,-0.12891 -0.33985,-0.69531 -0.62598,-1.32763 -0.87207,-1.93164 -0.57715,-1.69482 -0.8584,-3.33642 -0.8584,-5.01806 0,-0.47168 0.02246,-0.96045 0.06543,-1.45166 0.20117,-1.70997 0.61816,-3.19581 1.35156,-4.81446 0.12402,-0.23926 0.25781,-0.48437 0.40234,-0.74072 z m 0.91504,-2.62012 c -9.7e-4,0.0015 -0.0019,0.0024 -0.0029,0.0034 -9.7e-4,0.0015 -0.0029,0.0034 -0.0039,0.0049 0.0019,-0.0029 0.0039,-0.0054 0.0068,-0.0083 z m -13.65332,-4.93261 c 0.02442,4.8e-4 0.68848,0.0142 0.73047,0.0146 0.76855,0.0816 1.49609,0.15918 2.2041,0.29883 1.77637,0.39844 3.33008,1.03662 4.86817,1.99365 -2.50489,3.59913 -3.86719,7.88038 -3.86719,12.2793 0,4.42822 1.33594,8.66992 3.8623,12.27246 -0.47168,0.30029 -0.96777,0.58447 -1.49414,0.85498 -0.86719,0.40186 -1.74511,0.72705 -2.68359,0.99512 -1.30957,0.29053 -2.49805,0.43896 -3.63086,0.45264 -1.11328,-0.01416 -2.25879,-0.15772 -3.60156,-0.45166 -1.37012,-0.39844 -2.61621,-0.92676 -3.91993,-1.6626 -1.05957,-0.67529 -1.93554,-1.36377 -2.75195,-2.16553 -0.99414,-1.02588 -1.7998,-2.09717 -2.5332,-3.36963 -0.3584,-0.73633 -0.63574,-1.35205 -0.87402,-1.93408 -0.57618,-1.69775 -0.85743,-3.33789 -0.85743,-5.01367 0,-0.47412 0.02246,-0.96387 0.06739,-1.45606 0.19921,-1.708 0.61621,-3.19433 1.35156,-4.81689 0.28515,-0.55274 0.6123,-1.12793 1.05957,-1.8584 1.11133,-1.5835 2.39941,-2.86377 3.9375,-3.91406 1.18359,-0.7832 2.37109,-1.35938 3.83984,-1.86377 1.46778,-0.41455 2.83301,-0.62256 4.29297,-0.65527 z m 63.67969,-2.75831 c -1.21973,-0.89648 -2.52442,-1.66406 -3.87891,-2.28125 -2.79004,-1.27099 -5.76953,-1.91552 -8.85449,-1.91552 -3.08203,0 -6.04297,0.63281 -8.7998,1.88086 -1.40039,0.63183 -2.72168,1.41211 -3.94825,2.31982 -0.03613,-0.0376 -0.07226,-0.0747 -0.11523,-0.10498 -1.2168,-0.86621 -2.50098,-1.61084 -3.81543,-2.21338 -2.72168,-1.23193 -5.76074,-1.88232 -8.79004,-1.88232 -3.06836,0 -6.02344,0.63232 -8.78418,1.88037 -1.39258,0.62451 -2.71777,1.39941 -3.95019,2.30615 -0.002,-9.8e-4 -0.002,-0.002 -0.0039,-0.003 -3.73438,-2.73682 -8.1416,-4.18359 -12.74414,-4.18359 -11.87012,0 -21.52735,9.66357 -21.52735,21.5415 0,11.87256 9.65723,21.53174 21.52735,21.53174 4.64062,0 9.09668,-1.50684 12.7539,-4.19824 0.03614,0.04004 0.07422,0.07812 0.11915,0.11035 1.1748,0.85351 2.46093,1.59961 3.82324,2.21777 2.78906,1.24121 5.74414,1.87012 8.78613,1.87012 3.05859,0 6.01465,-0.63379 8.78516,-1.88281 1.40527,-0.62598 2.73144,-1.40332 3.96191,-2.3086 0.03027,0.03125 0.06055,0.06348 0.09668,0.08887 1.20313,0.87695 2.45508,1.60254 3.82617,2.21973 2.77051,1.24902 5.73047,1.88281 8.79883,1.88281 3.06738,0 6.0459,-0.63965 8.85059,-1.90039 1.35839,-0.61817 2.66699,-1.3916 3.89746,-2.30274 0.04297,0.04981 0.09082,0.09571 0.14453,0.13477 3.67773,2.66113 8.0332,4.06836 12.5918,4.06836 5.73632,0 11.1416,-2.24414 15.21972,-6.31934 4.07813,-4.07568 6.3252,-9.47802 6.3252,-15.2124 0,-11.87793 -9.66504,-21.5415 -21.54492,-21.5415 -4.64356,0 -9.03711,1.45117 -12.75098,4.19677 z"
         style="display:none;fill:#959393;fill-opacity:1;fill-rule:evenodd;stroke:none"
         id="path144" />
      <path
         d="m 96.65234,-48.76758 c -0.16601,0 -0.2998,0.13379 -0.2998,0.29981 0,0 0,12.90332 0,12.90332 0,0.16601 0.13379,0.2998 0.2998,0.2998 0,0 4.14161,0 4.14161,0 0.16601,0 0.2998,-0.13379 0.2998,-0.2998 0,0 0,-12.90332 0,-12.90332 0,-0.16602 -0.13379,-0.29981 -0.2998,-0.29981 0,0 -4.14161,0 -4.14161,0 z m -23.56738,-0.03613 c -0.16504,0 -0.2998,0.13379 -0.2998,0.29883 0,0 0,6.208 0,6.208 0,1.37208 -0.73438,2.07227 -1.17188,2.36719 -0.41699,0.27539 -0.91308,0.42871 -1.39648,0.42871 -1.55957,0 -2.56739,-1.15234 -2.56739,-2.93554 0,0 0,-6.06836 0,-6.06836 0,-0.16504 -0.13378,-0.29883 -0.29882,-0.29883 0,0 -4.28418,0 -4.28418,0 -0.16504,0 -0.29981,0.13379 -0.29981,0.29883 0,0 0,7.66992 0,7.66992 0,0.60742 0.13086,1.20508 0.38867,1.77441 0.50586,1.14649 1.50391,2.20215 2.81055,2.96973 1.27832,0.75195 2.74023,1.16504 4.11523,1.16504 0.56055,0 1.14942,-0.05078 1.75,-0.15332 1.5752,-0.29395 2.99708,-0.96973 4.01075,-1.90235 1.15039,-1.05859 1.75488,-2.41406 1.74707,-3.91894 0,0 0,-7.60449 0,-7.60449 0,-0.16504 -0.13379,-0.29883 -0.29981,-0.29883 0,0 -4.2041,0 -4.2041,0 z m 11.35352,6.70117 c 0,-1.58594 1.34277,-2.87598 2.99218,-2.87598 1.64063,0 2.97461,1.29004 2.97461,2.87598 0,1.58203 -1.33398,2.86816 -2.97461,2.86816 -1.64941,0 -2.99218,-1.28613 -2.99218,-2.86816 z m 0.56054,-11.32129 c -0.10644,0 -0.20507,0.05664 -0.25879,0.14942 -0.02734,0.04687 -0.04101,0.09863 -0.04101,0.15039 0,0.05175 0.01367,0.10254 0.04004,0.14843 0,0 1.70019,2.97852 2.08984,3.66114 -3.81836,0.28711 -6.84668,3.4248 -6.84668,7.21191 0,3.97754 3.3418,7.21387 7.44824,7.21387 4.11329,0 7.45997,-3.23633 7.45997,-7.21387 0,-1.52051 -0.48047,-2.96973 -1.3877,-4.19238 -0.0098,-0.0166 -3.99023,-6.97754 -3.99023,-6.97754 -0.05372,-0.09375 -0.15332,-0.15137 -0.26075,-0.15137 0,0 -4.25293,0 -4.25293,0 z m -32.04199,6.89551 c 0.39063,0.75586 2.03906,3.95019 2.38379,4.62012 -0.74902,0 -4.14258,0 -4.91016,0 0.40235,-0.73731 2.49805,-4.56836 2.49903,-4.56934 0,0 0.02246,-0.04199 0.02734,-0.05078 z m -3.2666,-7.05859 c -0.14941,0 -0.27637,0.11132 -0.29688,0.25976 0,0 -0.60058,4.39942 -0.61621,4.51172 -0.05761,0.10059 -7.50097,13.10254 -7.50097,13.10254 -0.02637,0.0459 -0.03907,0.09766 -0.03907,0.14844 0,0.05273 0.0127,0.10449 0.04004,0.15039 0.05371,0.09277 0.15235,0.14941 0.25879,0.14941 0,0 5.12403,0 5.12403,0 0.11035,0 0.21093,-0.05957 0.26367,-0.15625 0,0 1.0459,-1.91504 1.19336,-2.1875 0.33691,0 9.04199,0 9.3916,0 0.14355,0.28711 1.08398,2.17774 1.08398,2.17774 0.05078,0.10156 0.1543,0.16601 0.26856,0.16601 0,0 4.92578,0 4.92578,0 0.10449,0 0.20117,-0.05469 0.25586,-0.14355 0.05469,-0.08985 0.05859,-0.20118 0.0098,-0.29395 0,0 -0.35839,-0.69238 -0.35839,-0.69238 0,0 -8.875,-17.03125 -8.875,-17.03125 -0.05176,-0.09863 -0.1543,-0.16113 -0.26563,-0.16113 0,0 -4.86328,0 -4.86328,0 z m 51.07715,-44.34327 c -0.54199,0.40137 -1.01172,0.79151 -1.43848,1.1919 -0.0019,0.0015 -0.20898,0.20557 -0.20898,0.20557 -0.38574,0.37792 -0.82227,0.80615 -1.16797,1.23681 -0.002,0.0024 -0.0039,0.0049 -0.0059,0.0078 -0.30957,0.41309 -0.6084,0.84278 -0.89746,1.25782 0,0 -0.11328,0.16211 -0.11328,0.16211 -0.03516,0.05127 -0.05371,0.11132 -0.05371,0.17138 0,0.0503 0.01269,0.10108 0.03808,0.14649 0.58008,1.03369 1.03418,2.05273 1.38965,3.11425 0.30078,1.05616 0.49219,1.98975 0.60156,2.93604 0.0459,0.51465 0.06934,1.01514 0.06934,1.51904 0,0.50586 -0.02344,1.01514 -0.07031,1.54444 -0.08399,0.75341 -0.24414,1.53857 -0.38868,2.21631 -0.41113,1.40771 -0.96093,2.69433 -1.72753,4.04687 -0.13575,0.22217 -0.27832,0.44189 -0.41407,0.63623 -0.0019,0.0024 -0.0039,0.0049 -0.0049,0.0073 -0.25684,0.39014 -0.53027,0.75684 -0.83496,1.1211 -0.62109,0.73779 -1.31738,1.43359 -2.06738,2.06787 -0.35352,0.29834 -0.75586,0.59082 -1.23047,0.89453 -0.59473,0.396 -1.20703,0.7544 -1.8252,1.06885 -0.88867,0.4126 -1.79687,0.75098 -2.77539,1.0332 -1.37012,0.30127 -2.59863,0.45459 -3.75488,0.46826 -1.16699,-0.01367 -2.36231,-0.16308 -3.75195,-0.46826 -1.41993,-0.4126 -2.71192,-0.96045 -4.0625,-1.72314 -0.02442,-0.01563 -0.1543,-0.09815 -0.1543,-0.09815 0,0 -0.23047,-0.15039 -0.23047,-0.15039 -0.13379,-0.0874 -0.30078,-0.09131 -0.39551,0.0376 0,0 -0.08008,0.11035 -0.08008,0.11035 0,0 -0.01464,0.02246 -0.01464,0.02246 -0.6875,0.83106 -1.30469,1.53223 -1.88477,2.14258 -0.57031,0.55273 -1.15918,1.07715 -1.75098,1.55859 -0.07031,0.05664 -0.11132,0.14161 -0.11132,0.23243 0,0.002 0,0.0049 0,0.0078 0.0029,0.09277 0.04785,0.17969 0.12304,0.23437 1.17481,0.8545 2.39551,1.5625 3.7334,2.16504 2.70215,1.21875 5.59082,1.83594 8.58399,1.83594 2.99316,0 5.89843,-0.62305 8.63574,-1.85352 1.50195,-0.68359 2.94238,-1.5625 4.2832,-2.61328 2.46191,-1.92822 4.49902,-4.41748 5.89258,-7.19922 1.46387,-2.92285 2.20605,-6.06591 2.20605,-9.34082 0,-4.24902 -1.28515,-8.35888 -3.71582,-11.88427 -0.0459,-0.0669 -0.11718,-0.11231 -0.19726,-0.12549 -0.0801,-0.01319 -0.16309,0.0063 -0.22754,0.05517 z m -25.55274,-0.12109 c -0.6289,0.42334 -1.16992,0.86133 -1.60839,1.30176 0,4.9e-4 -0.33008,0.33398 -0.33008,0.33398 -0.35938,0.36182 -0.73145,0.73535 -1.03907,1.12012 -0.2207,0.27637 -0.42578,0.56592 -0.62402,0.8457 0,0 -0.27148,0.38037 -0.27148,0.38037 -0.03809,0.05225 -0.05664,0.11475 -0.05664,0.17676 0,0.05322 0.01367,0.10645 0.04199,0.15332 0.60351,1.00391 1.09961,2.08447 1.51562,3.3042 0.30078,1.06055 0.49024,1.99317 0.59473,2.93408 0.0498,0.51563 0.0752,1.0166 0.0752,1.521 0,0.50488 -0.0254,1.01318 -0.07618,1.5415 -0.08398,0.75684 -0.23339,1.51368 -0.38281,2.21875 -0.41308,1.41114 -0.96191,2.69678 -1.72754,4.04541 -0.46191,0.73487 -0.84961,1.27979 -1.2539,1.76661 -0.61036,0.72607 -1.30567,1.42187 -2.06641,2.06689 -0.38281,0.31201 -0.79883,0.61475 -1.30273,0.94922 -0.59375,0.39062 -1.16895,0.72265 -1.75782,1.01562 -0.89258,0.41455 -1.80566,0.75293 -2.7832,1.03174 -1.35156,0.30127 -2.57617,0.45459 -3.74414,0.46826 -1.16406,-0.01367 -2.3584,-0.16308 -3.74902,-0.46826 -1.41895,-0.41064 -2.71192,-0.95898 -4.06836,-1.72558 -0.11036,-0.05957 -0.21094,-0.12354 -0.33106,-0.21192 -0.06543,-0.04736 -0.14648,-0.06689 -0.22558,-0.05371 -0.08008,0.01318 -0.1504,0.05762 -0.19727,0.12354 -0.0068,0.01025 -0.02637,0.03466 -0.0791,0.08545 -0.0078,0.0083 -0.0166,0.0166 -0.02344,0.02587 -0.70215,0.85791 -1.26855,1.50098 -1.83789,2.08399 -0.53125,0.5166 -1.12109,1.03711 -1.79883,1.58496 -0.07226,0.05859 -0.11328,0.14844 -0.11035,0.24121 0.002,0.09277 0.04785,0.17969 0.12305,0.23438 1.14648,0.833 2.40234,1.56152 3.73242,2.16503 2.71875,1.20997 5.60156,1.82227 8.56934,1.82227 2.98437,0 5.86718,-0.61719 8.56933,-1.83594 3.49512,-1.55859 6.49805,-4.05371 8.68457,-7.21631 2.45313,-3.55029 3.75,-7.68408 3.75,-11.95459 0,-4.25634 -1.29687,-8.38379 -3.74902,-11.93652 -0.0127,-0.01709 -0.0586,-0.05957 -0.07324,-0.07373 0,0 0.04882,0.04639 0.04882,0.04639 0,0 -0.0059,-0.0083 -0.0059,-0.0083 0,0 -0.03613,-0.04932 -0.03613,-0.04932 -0.0957,-0.12842 -0.26269,-0.14356 -0.39551,-0.0542 z m -31.11914,-3.28125 c -0.43066,0.40186 -0.84179,0.82227 -1.23535,1.25684 0.22754,-0.25147 0.4541,-0.49952 0.67578,-0.73926 0.19141,-0.18115 0.37696,-0.35205 0.55957,-0.51758 z m 5.68457,3.43506 c -0.0098,0.0093 -0.02343,0.021 -0.02343,0.021 0.0049,-0.0039 0.01367,-0.01221 0.02343,-0.021 z m 0.07227,-7.26172 c -1.61426,0.72461 -3.10645,1.63867 -4.45508,2.70703 0.06055,-0.0562 0.09863,-0.1333 0.09863,-0.2168 0,-0.002 0,-0.004 0,-0.006 -0.002,-0.0937 -0.04687,-0.18067 -0.12207,-0.23584 -3.64453,-2.6709 -7.94433,-4.08252 -12.43554,-4.08252 -11.58106,0 -21.00293,9.42822 -21.00293,21.01757 0,11.5835 9.42187,21.00684 21.00293,21.00684 6.87793,0 13.33886,-3.39063 17.2832,-9.06982 2.44434,-3.50977 3.7373,-7.63721 3.7373,-11.93702 0,-4.27343 -1.28027,-8.38769 -3.70117,-11.89795 -0.04883,-0.0708 -0.11621,-0.12548 -0.20117,-0.13574 -0.08594,-0.01025 -0.16113,0.0088 -0.22559,0.06641 0,0 -0.01757,0.01611 -0.03613,0.03223 -0.54004,0.38134 -1.01758,0.7705 -1.4209,1.15625 -0.0039,0.0034 -0.10839,0.10742 -0.10839,0.10742 -0.41797,0.41406 -0.89161,0.8833 -1.26465,1.35205 -0.26953,0.32519 -0.5127,0.67529 -0.74707,1.01367 0,0 -0.26465,0.37891 -0.26465,0.37891 -0.03711,0.05224 -0.05567,0.11328 -0.05567,0.1748 0,0.05029 0.0127,0.10059 0.03809,0.146 0.54199,0.96435 1.00098,1.99414 1.40332,3.14697 0.30078,1.05811 0.49023,1.99023 0.59473,2.93359 0.04882,0.51514 0.07324,1.0166 0.07324,1.52051 0,0.50586 -0.02442,1.01416 -0.07324,1.54248 -0.08496,0.78565 -0.24219,1.56153 -0.38575,2.21729 -0.41113,1.40625 -0.95996,2.69189 -1.72656,4.0459 -0.34082,0.53857 -0.75488,1.16894 -1.25293,1.76709 -0.61914,0.73339 -1.31445,1.42919 -2.06738,2.06689 -0.91895,0.73633 -1.92188,1.38037 -3.05859,1.96338 -0.90039,0.41797 -1.81153,0.75586 -2.78516,1.0332 -1.35352,0.30127 -2.58301,0.45459 -3.75781,0.46826 -1.15528,-0.01367 -2.34473,-0.16308 -3.73438,-0.46826 -1.41992,-0.41113 -2.71094,-0.95849 -4.06054,-1.72168 -1.09766,-0.69824 -2.00391,-1.41113 -2.85157,-2.24414 -1.03027,-1.06152 -1.86621,-2.17334 -2.62597,-3.49267 -0.37012,-0.76172 -0.65723,-1.39747 -0.90235,-1.99903 -0.59863,-1.75928 -0.88965,-3.44189 -0.88965,-5.19629 0,-0.49609 0.02344,-0.99804 0.06934,-1.50927 0.20605,-1.76807 0.6377,-3.30957 1.40137,-4.98975 0.29394,-0.57324 0.63281,-1.16699 1.0957,-1.92285 1.14941,-1.64014 2.4834,-2.96729 4.07813,-4.05615 1.23144,-0.81495 2.45996,-1.41163 3.97851,-1.93164 1.52051,-0.43018 2.93359,-0.646 4.44629,-0.67872 0.01562,0 0.74316,0.0146 0.76758,0.0151 0.79199,0.084 1.53906,0.16358 2.27929,0.30908 1.91797,0.42969 3.58887,1.12744 5.25098,2.19336 0.12988,0.0835 0.30176,0.05469 0.39649,-0.06689 0.29589,-0.37647 0.60644,-0.74219 0.91894,-1.09815 -3.25488,3.75489 -5.15039,8.61475 -5.15039,13.7583 0,4.34034 1.31543,8.49756 3.80273,12.02246 0.0459,0.06543 0.11622,0.10938 0.19434,0.12256 0.0791,0.01319 0.15918,-0.0054 0.22461,-0.05175 0.51367,-0.36866 1.00488,-0.77051 1.45898,-1.19385 0.002,-0.002 0.20704,-0.2041 0.20704,-0.2041 0.38671,-0.3794 0.82421,-0.80957 1.16992,-1.23926 0.002,-0.0024 0.0039,-0.0049 0.0059,-0.0073 0.24316,-0.32324 0.47265,-0.65039 0.69433,-0.9663 0,0 0.2959,-0.42041 0.2959,-0.42041 0.03711,-0.05274 0.05664,-0.11377 0.05664,-0.17481 0,-0.05127 -0.01367,-0.10254 -0.04199,-0.14892 0,0 -0.33008,-0.55079 -0.33984,-0.56641 -0.35254,-0.71924 -0.64746,-1.37305 -0.90235,-1.99854 -0.59961,-1.75634 -0.89062,-3.43994 -0.89062,-5.20019 0,-0.49463 0.02246,-0.99512 0.06836,-1.50537 0.20703,-1.77051 0.63867,-3.31201 1.40039,-4.98926 0.29883,-0.57666 0.63769,-1.1709 1.09863,-1.92285 1.14648,-1.63819 2.48047,-2.96485 4.07617,-4.05615 0.0166,-0.01172 0.03516,-0.02784 0.04981,-0.04297 0,0 -9.8e-4,4.9e-4 -9.8e-4,4.9e-4 0.0088,-0.0088 0.03809,-0.02588 0.05664,-0.0376 0,0 0.05469,-0.03369 0.05469,-0.03369 1.24512,-0.78418 2.46094,-1.36329 3.81836,-1.81787 1.52246,-0.43018 2.94043,-0.646 4.46289,-0.67872 0.01562,0 0.72754,0.0146 0.75195,0.0151 0.79004,0.084 1.53711,0.16309 2.29004,0.30859 1.88184,0.42237 3.50098,1.08741 5.09473,2.09327 0.12695,0.08056 0.30078,0.04541 0.39746,-0.0708 0,0 0.14551,-0.17627 0.14551,-0.17627 0.60644,-0.73487 1.14355,-1.33936 1.68554,-1.89746 0.74317,-0.70264 1.34375,-1.22754 1.94532,-1.70118 0.07226,-0.0566 0.11425,-0.14355 0.11425,-0.23535 0,-0.002 0,-0.005 0,-0.007 -0.0019,-0.0947 -0.04883,-0.18213 -0.12597,-0.23731 -1.18946,-0.84668 -2.44434,-1.57471 -3.7295,-2.16357 -2.65234,-1.20069 -5.61621,-1.83496 -8.57128,-1.83496 -2.99317,0 -5.87696,0.61718 -8.56934,1.83398 z m 46.84961,10.85498 c -0.03027,0.01074 -0.0625,0.01807 -0.0957,0.01807 0.03515,0 0.06543,-0.0093 0.0957,-0.01807 z m 0.22265,-0.29736 c 0,0.03418 -0.0078,0.06787 -0.01953,0.1001 0.0098,-0.03174 0.01953,-0.06397 0.01953,-0.1001 z m -26.30664,15.80078 c 0,0.0015 9.8e-4,0.0024 0.0029,0.0078 -9.7e-4,-0.0029 -0.0019,-0.0049 -0.0029,-0.0078 z m 25.82227,-23.72608 c 0,0 -9.8e-4,0 -9.8e-4,0 -0.01562,0.0122 -0.02929,0.0254 -0.04492,0.0371 0.03027,-0.0478 0.05274,-0.10058 0.05274,-0.15869 0,-0.002 0,-0.004 0,-0.005 -0.002,-0.0933 -0.04688,-0.18066 -0.12207,-0.23633 -1.19434,-0.87841 -2.47168,-1.63037 -3.79786,-2.23437 -2.7207,-1.24024 -5.62695,-1.86865 -8.63671,-1.86865 -3.00684,0 -5.89551,0.61718 -8.58399,1.83398 -3.48926,1.57666 -6.49219,4.08252 -8.68457,7.24707 -2.44141,3.53565 -3.73144,7.66309 -3.73144,11.93652 0,4.2837 1.29003,8.40674 3.73144,11.92334 -9.8e-4,-0.0019 -0.0088,-0.01318 -0.0098,-0.01513 0,0 0.03321,0.05078 0.03321,0.05078 0,0 0.0088,0.01269 0.0088,0.01269 0.0459,0.06739 0.12597,0.12647 0.20605,0.14014 0.08106,0.01318 0.17188,0.0063 0.23731,-0.04248 0.37207,-0.27881 0.92187,-0.70166 1.3916,-1.15234 0.0029,-0.0025 0.0068,-0.0068 0.0088,-0.0088 0,0 0.35742,-0.36475 0.35742,-0.36475 0.34961,-0.35205 0.70996,-0.71631 1.00683,-1.08789 0.2793,-0.35498 0.542,-0.73242 0.79493,-1.09766 0,0 0.25293,-0.3623 0.25293,-0.3623 0.03711,-0.05322 0.05664,-0.11377 0.05664,-0.17481 0,-0.05175 -0.01465,-0.104 -0.04395,-0.15087 0,0 -0.13086,-0.20899 -0.13086,-0.20899 0,0 -0.1709,-0.28076 -0.1748,-0.28711 -0.36914,-0.75683 -0.65625,-1.39258 -0.90332,-1.99902 -0.59766,-1.79785 -0.88867,-3.49317 -0.88867,-5.23486 0,-0.48584 0.02246,-0.97559 0.06738,-1.47168 0.20508,-1.77149 0.63672,-3.3125 1.40039,-4.98975 0.29394,-0.56982 0.63281,-1.16406 1.0957,-1.92285 1.14551,-1.63184 2.47363,-2.95899 4.0625,-4.05713 0,0 0.14453,-0.09473 0.14453,-0.09473 1.21485,-0.76855 2.43457,-1.35302 3.83301,-1.83593 1.52442,-0.43018 2.94336,-0.646 4.46387,-0.67872 0.01562,0 0.72754,0.0146 0.75293,0.0151 0.78808,0.084 1.53418,0.16309 2.29004,0.30859 1.90722,0.43116 3.57812,1.12842 5.25781,2.19483 0.12402,0.07861 0.28906,0.05322 0.38672,-0.05664 0,0 0.01172,-0.01367 0.01172,-0.01367 0.01269,-0.01123 0.0332,-0.02979 0.04394,-0.04297 0.12891,-0.15821 0.25293,-0.30713 0.37403,-0.45215 -0.29395,0.36475 -0.57911,0.73877 -0.85059,1.12402 -2.4873,3.53662 -3.80176,7.69776 -3.80176,12.03369 0,4.33741 1.31446,8.49952 3.80078,12.03565 0.0459,0.06494 0.11621,0.10937 0.19434,0.12305 0.07812,0.01367 0.15918,-0.0044 0.22363,-0.05079 0.54981,-0.38818 1.04199,-0.78857 1.46387,-1.19043 0.0059,-0.0058 0.17676,-0.17773 0.17676,-0.17773 0.3955,-0.39502 0.84277,-0.84277 1.19824,-1.2832 0.29492,-0.36475 0.56445,-0.74707 0.82519,-1.1167 0,0 0.18555,-0.26172 0.18555,-0.26172 0.03711,-0.05322 0.05664,-0.11426 0.05664,-0.17529 0,-0.05176 -0.01367,-0.10303 -0.04199,-0.14991 0,0 -0.20117,-0.32861 -0.20117,-0.32861 0,0 -0.14453,-0.23535 -0.15625,-0.25391 -0.3418,-0.69775 -0.63574,-1.35058 -0.90039,-1.99609 -0.59864,-1.79736 -0.88867,-3.49023 -0.88867,-5.22754 0,-0.48828 0.02343,-0.97998 0.06835,-1.47851 0.20215,-1.76856 0.63379,-3.30957 1.39649,-4.98829 0.36523,-0.70361 0.75781,-1.36377 1.06738,-1.87451 0.01953,-0.01806 0.03321,-0.0415 0.04785,-0.06445 1.12989,-1.61084 2.45899,-2.93311 4.06348,-4.04248 1.23633,-0.81592 2.46484,-1.4126 3.97754,-1.93066 1.52051,-0.43018 2.93848,-0.646 4.46191,-0.67872 0.0156,0 0.72852,0.0146 0.75293,0.0151 0.002,4.9e-4 0.005,9.8e-4 0.005,9.8e-4 0.78711,0.0835 1.53125,0.1626 2.28515,0.30761 1.98145,0.44874 3.69238,1.1709 5.38477,2.27198 1.63769,1.14013 2.93164,2.43457 4.07129,4.07177 0.82617,1.28467 1.43652,2.55079 1.91992,3.98243 0.2998,1.05468 0.48926,1.98779 0.59473,2.93554 0.0498,0.51563 0.0752,1.0166 0.0752,1.521 0,0.50488 -0.0254,1.01318 -0.0762,1.5415 -0.0703,0.63379 -0.18945,1.31983 -0.38477,2.21778 -0.41211,1.41552 -0.96093,2.70166 -1.72754,4.04541 -0.44921,0.71631 -0.84668,1.27832 -1.25195,1.76806 -0.60742,0.72168 -1.30176,1.41651 -2.06348,2.06348 -0.93359,0.74561 -1.93554,1.38916 -3.0625,1.96631 -0.8955,0.41455 -1.80078,0.75244 -2.76855,1.0332 -1.37305,0.30127 -2.60254,0.45459 -3.75977,0.46826 -1.16504,-0.01367 -2.35839,-0.16308 -3.74804,-0.46777 -1.41016,-0.40869 -2.74024,-0.97314 -4.06641,-1.7251 -0.01,-0.0063 -0.0625,-0.03808 -0.0625,-0.03808 0,0 -0.27441,-0.1753 -0.27441,-0.1753 -0.13086,-0.08349 -0.31836,-0.06347 -0.41407,0.05909 -0.54785,0.70898 -1.17871,1.43554 -1.92968,2.22119 -0.51368,0.50097 -1.08594,1.00683 -1.79981,1.58984 -0.07031,0.05664 -0.11035,0.1416 -0.11035,0.23145 0,0.0029 0,0.0059 0,0.0088 0.0029,0.09278 0.04883,0.17969 0.12402,0.23438 3.58887,2.59668 7.83692,3.96875 12.28516,3.96875 5.5957,0 10.86914,-2.18945 14.84863,-6.16504 3.9795,-3.97705 6.1709,-9.24756 6.1709,-14.8418 0,-11.58935 -9.42871,-21.01757 -21.01953,-21.01757 -4.7373,0 -9.21094,1.54443 -12.93457,4.4663 z"
         style="display:none;fill:#ffffff;fill-opacity:1;fill-rule:evenodd;stroke:none"
         id="path146" />
      <path
         d="m 104.23438,-85.97559 c 0,-4.33252 -1.36231,-8.37744 -3.66309,-11.71435 -0.49121,0.36426 -0.96777,0.75342 -1.41113,1.16992 -0.42774,0.42285 -0.95313,0.91846 -1.34864,1.41162 -0.34668,0.46143 -0.67187,0.93408 -1.00488,1.41162 0.56348,1.0044 1.03613,2.04053 1.41406,3.17188 0.28125,0.98388 0.49317,1.95459 0.61328,2.99072 0.09473,1.05176 0.09473,2.0542 0,3.12402 -0.08398,0.75342 -0.23535,1.50879 -0.3955,2.26465 -0.42774,1.46387 -1.00489,2.79151 -1.76075,4.12403 -0.13085,0.21484 -0.28027,0.4458 -0.42773,0.65625 -0.25977,0.3955 -0.54004,0.77343 -0.85449,1.14892 -0.64063,0.76026 -1.34668,1.46387 -2.10449,2.10401 -0.40723,0.34375 -0.83399,0.64501 -1.26172,0.91845 -0.59571,0.396 -1.21485,0.76026 -1.85547,1.08594 -0.9209,0.42773 -1.85938,0.77393 -2.83203,1.0542 -1.26465,0.27832 -2.5293,0.46191 -3.8252,0.47754 -1.3125,-0.01563 -2.56543,-0.19922 -3.83008,-0.47754 -1.47558,-0.42725 -2.80761,-1.00195 -4.14062,-1.75537 -0.12891,-0.08594 -0.27539,-0.16748 -0.40918,-0.26465 -0.03223,0.03369 -0.04981,0.0791 -0.08106,0.11768 -0.60937,0.73535 -1.24902,1.47509 -1.90527,2.16503 -0.57617,0.5586 -1.16699,1.08594 -1.77441,1.57911 1.14746,0.83593 2.3623,1.54101 3.67968,2.13378 2.57813,1.16309 5.43555,1.81055 8.46094,1.81055 3.02149,0 5.91504,-0.66113 8.5127,-1.82812 1.51074,-0.6875 2.9248,-1.55957 4.2207,-2.5752 4.84668,-3.79639 7.98438,-9.69678 7.98438,-16.30469 z m 4.7666,-20.71777 c -4.79883,0 -9.23243,1.64209 -12.75098,4.40234 -1.6084,1.26465 -3.03809,2.77784 -4.2207,4.45411 -2.36914,3.36865 -3.7461,7.45898 -3.7461,11.86132 0,4.40479 1.37696,8.49463 3.7461,11.86329 0.50879,-0.35987 1.00195,-0.75538 1.42968,-1.1626 0.44141,-0.44336 0.95215,-0.94141 1.34864,-1.43213 0.35644,-0.44141 0.67187,-0.90283 0.99902,-1.36426 -0.11523,-0.19678 -0.24414,-0.39355 -0.36133,-0.59033 -0.33008,-0.67432 -0.63769,-1.35059 -0.91894,-2.03613 -0.75586,-2.26661 -1.05371,-4.45215 -0.83692,-6.83643 0.21094,-1.8418 0.66993,-3.43213 1.42578,-5.09228 0.34766,-0.67237 0.72559,-1.3169 1.11719,-1.95948 0.01758,0 0.01758,0 0.01758,-0.01562 1.15234,-1.64258 2.5,-2.98633 4.14258,-4.12207 1.29883,-0.85742 2.57715,-1.46338 4.05859,-1.97022 1.50879,-0.42773 2.95703,-0.65869 4.54981,-0.69238 l 0.77343,0.0161 c 0.78711,0.0835 1.5586,0.16504 2.33204,0.31397 2.0205,0.45703 3.74609,1.18115 5.49121,2.31689 1.67382,1.16504 2.98828,2.47949 4.15332,4.15332 0.83691,1.30078 1.46386,2.59717 1.95703,4.06104 0.28027,0.98388 0.49023,1.95459 0.60547,2.99072 0.10254,1.05176 0.10254,2.0542 0,3.12402 -0.083,0.75342 -0.22852,1.50879 -0.39356,2.26465 -0.4248,1.46387 -0.99902,2.79151 -1.75976,4.12403 -0.39161,0.62451 -0.80567,1.23291 -1.27832,1.80517 -0.63965,0.76026 -1.35059,1.46387 -2.10352,2.10401 -0.98828,0.78955 -2.00488,1.43212 -3.12207,2.00439 -0.92285,0.42773 -1.85742,0.77393 -2.8252,1.0542 -1.26757,0.27832 -2.53222,0.46191 -3.83007,0.47754 -1.31446,-0.01563 -2.56348,-0.19922 -3.82813,-0.47754 -1.47754,-0.42725 -2.8125,-1.00195 -4.13965,-1.75537 -0.11621,-0.07031 -0.24902,-0.14697 -0.36425,-0.23096 -0.6084,0.7876 -1.26465,1.52734 -1.95508,2.24902 -0.58789,0.57422 -1.19629,1.09961 -1.82324,1.61036 3.40039,2.46093 7.59179,3.91308 12.11035,3.91308 11.40332,0 20.71972,-9.30615 20.71972,-20.70801 0,-11.41748 -9.3164,-20.71777 -20.71972,-20.71777 z m -59.39942,32.48389 c 2.33301,-3.35059 3.68262,-7.40674 3.68262,-11.76612 0,-4.35058 -1.34961,-8.3955 -3.64746,-11.72754 -0.01856,0.01319 -0.01856,0.01319 -0.03516,0.03174 -0.49121,0.34571 -0.96679,0.72364 -1.39453,1.1333 -0.44433,0.44092 -0.9541,0.93653 -1.34668,1.42969 -0.36523,0.44092 -0.6748,0.9209 -1.00195,1.37988 0.57226,1.01807 1.03418,2.07227 1.42773,3.20362 0.28028,0.98388 0.49219,1.95459 0.60742,2.99072 0.09961,1.05176 0.09961,2.0542 0,3.12402 -0.08203,0.75342 -0.22851,1.50879 -0.39355,2.26465 -0.42773,1.46387 -1.00488,2.79151 -1.75879,4.12403 -0.39551,0.62451 -0.80469,1.23291 -1.28125,1.80517 -0.64062,0.76026 -1.34766,1.46387 -2.10351,2.10401 -0.98536,0.78955 -2.00391,1.43212 -3.1211,2.00439 -0.91992,0.42773 -1.85547,0.77393 -2.84375,1.0542 -1.24805,0.27832 -2.51367,0.46191 -3.82715,0.47754 -1.29785,-0.01563 -2.54785,-0.19922 -3.8125,-0.47754 -1.47754,-0.42725 -2.80957,-1.00195 -4.14062,-1.75537 -1.06836,-0.67871 -2.00488,-1.40039 -2.90723,-2.28711 -1.06836,-1.10205 -1.92383,-2.25098 -2.67969,-3.56543 -0.32812,-0.67432 -0.63964,-1.35059 -0.91992,-2.03613 -0.77246,-2.26661 -1.05176,-4.45215 -0.83691,-6.83643 0.21387,-1.8418 0.6748,-3.43213 1.42871,-5.09228 0.34473,-0.67237 0.72266,-1.3169 1.11621,-1.95948 1.15039,-1.64209 2.49707,-3.00195 4.16016,-4.13769 1.29589,-0.85742 2.57714,-1.46338 4.05761,-1.97022 1.50977,-0.42773 2.95606,-0.65869 4.53418,-0.69238 l 0.78809,0.0161 c 0.79004,0.0835 1.56152,0.16504 2.31738,0.31397 1.97071,0.4414 3.66309,1.14941 5.35547,2.23535 0.60742,-0.77393 1.26563,-1.49561 1.92383,-2.20557 0.60742,-0.5747 1.23144,-1.13134 1.87305,-1.64258 -3.45118,-2.52929 -7.67286,-4.02441 -12.25782,-4.02441 -11.40429,0 -20.70312,9.30029 -20.70312,20.71777 0,11.40186 9.29883,20.70801 20.70312,20.70801 7.04883,0 13.29395,-3.55273 17.03711,-8.94189 z m 23.36817,-7.93604 c -0.42774,1.46387 -1.00391,2.79151 -1.76075,4.12403 -0.3916,0.62451 -0.80468,1.23291 -1.28125,1.80517 -0.63867,0.76026 -1.34765,1.46387 -2.10253,2.10401 -0.44434,0.3623 -0.8877,0.67675 -1.33106,0.9707 -0.57519,0.37793 -1.16601,0.72363 -1.79004,1.03369 -0.9209,0.42773 -1.85742,0.77393 -2.84375,1.0542 -1.24707,0.27832 -2.51269,0.46191 -3.8125,0.47754 -1.31445,-0.01563 -2.5625,-0.19922 -3.82812,-0.47754 -1.4795,-0.42725 -2.8086,-1.00195 -4.14063,-1.75537 -0.13183,-0.07031 -0.24707,-0.14697 -0.36133,-0.23096 -0.03125,0.04541 -0.08105,0.09522 -0.11621,0.12891 -0.59082,0.72168 -1.19824,1.43017 -1.85547,2.10449 -0.59082,0.57422 -1.19824,1.10156 -1.82421,1.6084 1.15039,0.83594 2.38378,1.5459 3.67968,2.13379 2.58203,1.14941 5.43946,1.79687 8.44629,1.79687 3.00781,0 5.86719,-0.64746 8.44629,-1.81055 3.4668,-1.54589 6.42578,-4.02539 8.56152,-7.11328 2.31641,-3.35254 3.69629,-7.41357 3.69629,-11.78418 0,-4.3706 -1.37988,-8.41113 -3.69629,-11.76611 -0.0166,-0.01123 -0.03418,-0.04541 -0.04785,-0.06103 -0.56152,0.37793 -1.10644,0.80517 -1.56347,1.26464 -0.42871,0.44092 -0.95313,0.93653 -1.34668,1.42969 -0.31348,0.3916 -0.59082,0.80518 -0.88868,1.21485 0.64258,1.06787 1.13575,2.16699 1.5459,3.36865 0.2793,0.98388 0.49024,1.95459 0.60547,2.99072 0.10254,1.05176 0.10254,2.0542 0,3.12402 -0.08301,0.75342 -0.23047,1.50879 -0.39062,2.26465 z M 66.49414,-97.7417 c -2.31641,3.35498 -3.67871,7.39551 -3.67871,11.76611 0,4.35938 1.3623,8.41553 3.67871,11.75245 0.01856,0.03173 0.0332,0.04785 0.04981,0.07714 0.47753,-0.35742 0.95312,-0.73535 1.36425,-1.1289 0.42578,-0.44336 0.95313,-0.94141 1.34571,-1.43213 0.36035,-0.45947 0.68945,-0.95215 1.03711,-1.4458 -0.09961,-0.16699 -0.21485,-0.32764 -0.31348,-0.50879 -0.3291,-0.67432 -0.6416,-1.35059 -0.91895,-2.03613 -0.75586,-2.26661 -1.05371,-4.45215 -0.83886,-6.83643 0.21289,-1.8418 0.67187,-3.43213 1.42871,-5.09228 0.34668,-0.67237 0.72363,-1.3169 1.11621,-1.95948 1.15137,-1.64209 2.49902,-3.00195 4.1416,-4.13769 0.0498,-0.03369 0.10156,-0.06543 0.14941,-0.09717 1.25098,-0.79199 2.4795,-1.37988 3.90918,-1.87305 1.5127,-0.42773 2.95899,-0.65869 4.55176,-0.69238 l 0.77344,0.0161 c 0.78906,0.0835 1.55859,0.16504 2.33203,0.31397 1.95508,0.4414 3.64648,1.14941 5.35742,2.23535 0.01563,-0.01807 0.0293,-0.03418 0.04981,-0.04981 0.60644,-0.74218 1.21191,-1.4458 1.89062,-2.13574 0.60645,-0.59472 1.21289,-1.13525 1.85352,-1.64209 -1.16504,-0.85742 -2.41406,-1.59717 -3.74414,-2.20361 -2.59766,-1.18311 -5.49121,-1.84131 -8.5127,-1.84131 -3.02539,0 -5.88281,0.64014 -8.46094,1.80713 -3.45019,1.55908 -6.42382,4.05859 -8.56152,7.14453 z M 37.3291,-85.97559 c 0,4.40479 1.37988,8.49463 3.74707,11.84961 0.50781,-0.36425 0.98535,-0.75537 1.42871,-1.16943 0.42774,-0.42285 0.95313,-0.9209 1.34864,-1.41162 0.3457,-0.45947 0.65625,-0.91846 0.98437,-1.37988 -0.11523,-0.19922 -0.23047,-0.37793 -0.34473,-0.57471 -0.33007,-0.67432 -0.63964,-1.35059 -0.91992,-2.03613 -0.77441,-2.26661 -1.05176,-4.45215 -0.83886,-6.83643 0.21484,-1.8418 0.67382,-3.43213 1.42871,-5.09228 0.34668,-0.67237 0.72461,-1.3169 1.11816,-1.95948 1.14941,-1.64209 2.49707,-3.00195 4.15723,-4.13769 0.04882,-0.05176 0.11523,-0.0835 0.16308,-0.11524 1.25,-0.78711 2.48242,-1.38232 3.89649,-1.85498 1.50976,-0.42773 2.958,-0.65869 4.5498,-0.69238 l 0.77246,0.0161 c 0.79102,0.0835 1.56055,0.16504 2.33203,0.31397 1.90821,0.42773 3.55176,1.09717 5.19336,2.1333 0.04883,-0.06299 0.09864,-0.11524 0.14844,-0.17871 0.54297,-0.65821 1.10059,-1.29834 1.70899,-1.92481 0.6416,-0.60644 1.28125,-1.18115 1.97167,-1.72412 -1.15039,-0.81885 -2.38281,-1.54053 -3.68066,-2.13574 -2.5791,-1.16699 -5.45605,-1.80713 -8.44629,-1.80713 -3.00683,0 -5.86426,0.64014 -8.44629,1.80713 -7.21191,3.23535 -12.27246,10.49951 -12.27246,18.91064 z"
         style="display:inline;fill:#231f20;fill-opacity:1;fill-rule:evenodd;stroke:none"
         id="path148"
         sodipodi:nodetypes="scccccccccccccccccccccccsccssccsccccccccccccccccccccccccccccccccsssssscccccccccccccccccccccccccccccccssssscccccccccccccccsccscccccccccsscccccccccccccccccccccscsssccccccccccccccccccccscss" />
    </g>
  </g>
</svg>
