<?xml version="1.0" encoding="UTF-8" standalone="no"?>
<!-- Created with Inkscape (http://www.inkscape.org/) -->

<svg
   version="1.1"
   id="svg293"
   width="589.33331"
   height="479.20721"
   viewBox="0 0 589.33332 479.20723"
   xmlns="http://www.w3.org/2000/svg"
   xmlns:svg="http://www.w3.org/2000/svg">
  <defs
     id="defs297" />
  <g
     id="g301"
     transform="matrix(1.3333333,0,0,-1.3333333,-102.18373,800.03079)">
    <path
       d="m 233.3886,266.0153 c 0.2752,7.4937 13.3211,46.5302 16.6203,54.6194 8.2693,20.2757 21.9853,23.3867 47.6289,23.3867 25.6436,0 39.3596,-3.111 47.6288,-23.3867 3.3067,-8.1076 16.3469,-47.1654 16.3713,-54.6194 z m -75.9374,303.4355 c 7.9385,1.7666 5.1914,-10.4201 5.1863,-17.4356 -0.0496,-64.8587 10.241,-178.8182 17.4064,-242.7602 0.7832,-6.9879 1.6402,-14.2004 2.5271,-21.3009 0.7597,-6.0798 3.9541,-16.4016 -3.1595,-17.6893 -10.8686,-1.9676 -40.1403,13.0813 -47.5254,22.9977 -11.8913,15.9667 -14.9221,32.0891 -17.8458,53.0997 -4.0317,28.9752 -6.7835,56.3908 -7.8165,86.1313 -0.9099,26.1992 -1.9103,66.6082 3.4146,90.5916 2.6453,11.9149 9.114,25.6224 15.4715,31.4583 6.9415,6.3715 20.0444,12.1706 32.3413,14.9074 z m 276.8749,0 c 4.119,2.2451 26.2948,-7.5594 33.6113,-13.1368 7.2277,-5.5095 13.8163,-17.5533 16.9551,-30.0229 9.0176,-35.8251 4.0575,-138.0008 -3.4472,-176.0125 -5.218,-26.4305 -6.9233,-52.5209 -28.2283,-65.8571 -8.2298,-5.1514 -21.7618,-13.0303 -33.9497,-14.1704 -10.5755,-0.9895 -7.8993,7.2919 -6.9247,14.9616 8.1465,64.1222 17.873,174.9532 19.7861,239.7864 0.1627,5.5139 -0.6262,42.9128 2.1974,44.4517 z m -232.0676,4.9437 c 14.6619,6.8762 176.0967,6.8762 190.7586,0 0.5545,-6.2434 -24.3383,-97.369 -27.9842,-110.7428 -6.7728,-24.8426 -15.4267,-57.1031 -36.8025,-68.256 -8.8347,-4.61 -18.5471,-4.6296 -29.5925,-4.6296 -25.7165,0 -39.3361,4.2364 -49.7761,22.4615 -7.2712,12.6932 -14.5131,35.077 -18.8297,51.2098 -3.6474,13.6318 -28.3451,103.5227 -27.7736,109.9571 z M 76.6378,472.0153 c 0,-61.395 5.9045,-151.2947 29.0347,-188.9654 13.4671,-21.9331 45.2404,-31.5961 70.7882,-35.2117 63.8549,-9.0366 173.5477,-10.0259 239.6123,-0.4884 29.937,4.3219 60.2495,14.0709 73.5301,35.7001 23.1041,37.6279 29.0347,127.6279 29.0347,188.9654 0,71.8795 -11.6081,107.9552 -80.5711,119.4287 -55.1228,9.1709 -113.0227,8.5711 -169.429,8.5711 -38.0194,0 -106.6363,-3.7343 -143.1289,-16.8709 -19.2714,-6.9373 -32.7651,-21.4748 -39.729,-40.271 -6.9903,-18.8674 -9.142,-45.2064 -9.142,-70.8579"
       style="fill:#0c0205;fill-opacity:1;fill-rule:evenodd;stroke:none"
       id="path303" />
  </g>
</svg>
