<?xml version="1.0" encoding="utf-8"?>
<!-- Generator: Adobe Illustrator 23.1.1, SVG Export Plug-In . SVG Version: 6.00 Build 0)  -->
<!DOCTYPE svg PUBLIC "-//W3C//DTD SVG 1.1//EN" "http://www.w3.org/Graphics/SVG/1.1/DTD/svg11.dtd" [
	<!ENTITY ns_extend "http://ns.adobe.com/Extensibility/1.0/">
	<!ENTITY ns_ai "http://ns.adobe.com/AdobeIllustrator/10.0/">
	<!ENTITY ns_graphs "http://ns.adobe.com/Graphs/1.0/">
	<!ENTITY ns_vars "http://ns.adobe.com/Variables/1.0/">
	<!ENTITY ns_imrep "http://ns.adobe.com/ImageReplacement/1.0/">
	<!ENTITY ns_sfw "http://ns.adobe.com/SaveForWeb/1.0/">
	<!ENTITY ns_custom "http://ns.adobe.com/GenericCustomNamespace/1.0/">
	<!ENTITY ns_adobe_xpath "http://ns.adobe.com/XPath/1.0/">
]>
<svg version="1.1" id="Layer_1" xmlns:x="&ns_extend;" xmlns:i="&ns_ai;" xmlns:graph="&ns_graphs;"
	 xmlns="http://www.w3.org/2000/svg" xmlns:xlink="http://www.w3.org/1999/xlink" x="0px" y="0px" viewBox="0 0 437.1 102"
	 style="enable-background:new 0 0 437.1 102;" xml:space="preserve">
<style type="text/css">
	.st0{fill:#C72128;}
</style>
<metadata>
	<sfw  xmlns="&ns_sfw;">
		<slices></slices>
		<sliceSourceBounds  bottomLeftOrigin="true" height="102" width="437.1" x="30.7" y="-123.6"></sliceSourceBounds>
	</sfw>
</metadata>
<path class="st0" d="M437.1,8.7v58.2c0,4.9-2.5,9.4-6.7,11.9l-37.7,23.1c-0.7,0.4-1.5-0.1-1.5-0.9V34.1c0-0.8-0.9-1.3-1.5-0.8
	L289.3,98.6c-1.8,1.2-3.9,1.8-6,1.8h-66.6c-4.4,0-8-3.6-8-8V9.7c0-0.8-0.9-1.3-1.5-0.9l-66.8,40.3c-0.6,0.3-0.6,1.1-0.2,1.6
	L188.6,99c0.5,0.5,0.1,1.4-0.6,1.4h-44.8c-2.4,0-4.7-0.9-6.4-2.6l-28.6-28.5c-0.3-0.3-0.8-0.4-1.2-0.1L57.7,99
	c-1.5,0.9-3.3,1.4-5.1,1.4H8c-4.4,0-8-3.6-8-8V35c0-4.9,2.6-9.5,6.8-12l38-22.9c0.7-0.4,1.5,0.1,1.5,0.9v76.1c0,0.8,0.9,1.3,1.5,0.9
	L173.5,2.1c1.5-0.9,3.3-1.4,5.1-1.4h67c4.4,0,8,3.6,8,8v82c0,0.8,0.9,1.3,1.5,0.8L393.5,2.3c1.6-1,3.5-1.6,5.4-1.6h30.1
	C433.5,0.7,437.1,4.2,437.1,8.7z"/>
</svg>
