<?xml version="1.0" encoding="UTF-8" standalone="no"?>
<!-- Created with Inkscape (http://www.inkscape.org/) -->

<svg
   version="1.1"
   id="svg2"
   width="224.74133"
   height="249.4483"
   viewBox="0 0 224.74134 249.44831"
   xmlns="http://www.w3.org/2000/svg"
   xmlns:svg="http://www.w3.org/2000/svg">
  <defs
     id="defs6" />
  <g
     id="g8"
     transform="matrix(1.3333333,0,0,-1.3333333,-16.133333,253.22799)">
    <g
       id="g10"
       transform="scale(0.1)">
      <path
         d="M 0,1927.56 H 1927.56 V 0 H 0 v 1927.56"
         style="display:none;fill:#ffffff;fill-opacity:1;fill-rule:evenodd;stroke:none"
         id="path12" />
      <path
         d="M 959.641,905.762 H 398.93 L 121,417.766 h 562.324 l 276.317,487.996 v 0"
         style="fill:#ed1c24;fill-opacity:1;fill-rule:evenodd;stroke:none"
         id="path14" />
      <path
         d="M 1244.54,1406.37 964.184,1899.21 683.023,1406.37 964.184,912.723 1244.54,1406.37 v 0"
         style="fill:#ed1c24;fill-opacity:1;fill-rule:evenodd;stroke:none"
         id="path16" />
      <path
         d="m 1244.23,417.766 h 562.33 L 1528.63,905.762 H 967.918 L 1244.23,417.766 v 0"
         style="fill:#ed1c24;fill-opacity:1;fill-rule:evenodd;stroke:none"
         id="path18" />
      <path
         d="m 1219.3,35.3984 h 41.99 V 259.723 h -41.99 v -224.3246 0"
         style="fill:#231f20;fill-opacity:1;fill-rule:evenodd;stroke:none"
         id="path20" />
      <path
         d="m 1690.24,35.3984 h 41.98 V 259.723 h -41.98 v -224.3246 0"
         style="fill:#231f20;fill-opacity:1;fill-rule:evenodd;stroke:none"
         id="path22" />
      <path
         d="m 430.086,35.3984 h 41.98 V 259.723 h -41.98 v -224.3246 0"
         style="fill:#231f20;fill-opacity:1;fill-rule:evenodd;stroke:none"
         id="path24" />
      <path
         d="M 632.566,259.723 H 502.695 V 221.68 h 43.293 V 35.3984 h 43.289 V 221.68 h 43.289 v 38.043 0"
         style="fill:#231f20;fill-opacity:1;fill-rule:evenodd;stroke:none"
         id="path26" />
      <path
         d="m 1606.15,174.453 h -94.55 v 85.27 h -41.98 V 35.3984 h 41.98 V 136.41 h 94.55 V 35.3984 h 41.98 V 259.723 h -41.98 v -85.27 0"
         style="fill:#231f20;fill-opacity:1;fill-rule:evenodd;stroke:none"
         id="path28" />
      <path
         d="M 294.535,159.367 255.18,259.723 H 206.641 V 35.3984 h 41.976 V 174.453 L 294.535,62.9453 339.133,175.766 V 35.3984 h 41.984 V 259.723 h -47.23 L 294.535,159.367 v 0"
         style="fill:#231f20;fill-opacity:1;fill-rule:evenodd;stroke:none"
         id="path30" />
      <path
         d="M 988.313,259.703 H 946.719 V 99.6602 c 0,-17.418 -19.508,-31.5391 -36.926,-31.5391 -17.414,0 -36.926,14.1211 -36.926,31.5391 v 0 160.0428 h -42.363 l 0.621,-158.074 v 0 c 0,-40.4727 38.195,-73.2813 78.668,-73.2813 40.473,0 78.668,32.8086 78.668,73.2813 v 0 l -0.148,158.074 v 0"
         style="fill:#231f20;fill-opacity:1;fill-rule:evenodd;stroke:none"
         id="path32" />
      <path
         d="m 1150.23,156.742 c 5.91,3.934 28.21,17.055 28.21,45.258 0,39.355 -31.49,57.063 -52.48,57.723 v 0 h -97.24 V 35.3984 h 86.09 v 0 c 34.11,0 70.84,16.3985 70.84,59.6914 0,37.3832 -17.71,51.8122 -35.42,61.6522 z M 1116.78,73.4414 H 1070.7 V 221.68 h 44.11 v 0 c 11.81,0 20.99,-9.84 20.99,-21.649 0,-11.804 -4.59,-25.578 -20.33,-25.578 v 0 h -18.34 V 136.41 h 19.65 v 0 c 11.81,0 28.21,-11.152 27.55,-34.109 -0.56,-19.6682 -16.4,-28.8596 -27.55,-28.8596 v 0 0"
         style="fill:#231f20;fill-opacity:1;fill-rule:evenodd;stroke:none"
         id="path34" />
      <path
         d="m 649.375,108.207 c -0.328,-2.297 0,-4.922 0.148,-9.1836 0,-38.6757 31.356,-68.0664 70.036,-68.0664 38.679,0 70.031,26.1094 70.031,64.7891 0,20.3479 -7.969,36.0669 -21.824,48.8589 -11.305,10.446 -43.528,26.114 -56.078,33.786 -11.809,7.214 -17.383,12.789 -17.661,23.285 0,15.367 10.161,26.187 25.532,26.187 15.367,0 27.828,-12.457 27.828,-27.828 0.281,-3.937 0.375,-7.871 0.375,-10.492 v 0 h 37.195 v 10.492 0 c 0,36.113 -22.766,64.738 -65.398,64.738 -36.118,0 -65.399,-24.726 -65.399,-64.738 0.133,-17.711 8.332,-34.765 28.668,-48.211 21.852,-14.453 49.192,-25.25 58.375,-34.437 5.539,-5.539 8.965,-13.192 8.965,-21.6409 0,-16.9102 -13.703,-28.9727 -30.609,-28.9727 -16.907,0 -30.5,14.8672 -32.579,28.9727 -0.441,3.6055 -1.531,9.8359 -1.203,12.4609 v 0 h -36.402 v 0"
         style="fill:#231f20;fill-opacity:1;fill-rule:evenodd;stroke:none"
         id="path36" />
      <path
         d="m 1358.41,178.391 c -11.8,7.214 -17.38,12.789 -17.66,23.285 0,15.367 10.16,26.187 25.53,26.187 15.37,0 27.83,-12.457 27.83,-27.828 0.28,-3.937 0.37,-7.871 0.37,-10.492 v 0 h 37.2 v 10.492 0 c 0,36.113 -22.77,64.738 -65.4,64.738 -36.12,0 -65.4,-24.726 -65.4,-64.738 0.14,-17.711 8.34,-34.765 28.67,-48.211 21.85,-14.453 49.19,-25.25 58.38,-34.437 5.53,-5.539 8.96,-13.192 8.96,-21.6409 0,-16.9102 -13.71,-28.9727 -30.61,-28.9727 -16.9,0 -30.5,14.8672 -32.58,28.9727 -0.43,3.6055 -1.53,9.8359 -1.2,12.4609 v 0 h -36.4 v 0 c -0.33,-2.297 0,-4.922 0.15,-9.1836 0,-38.6757 31.36,-68.0664 70.03,-68.0664 38.68,0 70.04,26.1094 70.04,64.7891 0,20.3479 -7.98,36.0669 -21.83,48.8589 -11.31,10.446 -43.53,26.114 -56.08,33.786 v 0 0"
         style="fill:#231f20;fill-opacity:1;fill-rule:evenodd;stroke:none"
         id="path38" />
    </g>
  </g>
</svg>
