<?xml version="1.0" encoding="UTF-8"?>
<!DOCTYPE svg PUBLIC "-//W3C//DTD SVG 1.1//EN" "http://www.w3.org/Graphics/SVG/1.1/DTD/svg11.dtd">
<!-- Creator: CorelDRAW 2019 (64-Bit) -->
<svg xmlns="http://www.w3.org/2000/svg" xml:space="preserve" width="180.858mm" height="97.8958mm" version="1.1" style="shape-rendering:geometricPrecision; text-rendering:geometricPrecision; image-rendering:optimizeQuality; fill-rule:evenodd; clip-rule:evenodd"
viewBox="0 0 180.8336 97.8825"
 xmlns:xlink="http://www.w3.org/1999/xlink"
 xmlns:xodm="http://www.corel.com/coreldraw/odm/2003">
 <defs>
  <style type="text/css">
   <![CDATA[
    .fil0 {fill:black}
   ]]>
  </style>
 </defs>
 <g id="Layer_x0020_1">
  <metadata id="CorelCorpID_0Corel-Layer"/>
  <path class="fil0" d="M15.9456 71.3663l7.1418 0 15.9945 26.4131 -7.5817 0 -11.9351 -20.1522 -6.3587 10.6628 10.2722 0 3.0814 4.9895 -16.0928 0 -2.8855 4.4509 -7.5818 0 15.9456 -26.3642zm125.8058 26.4619l0 0 7.5815 0 2.8858 -4.4509 16.0938 0 -3.0819 -4.9893 -10.2727 0 6.3598 -10.6629 11.9344 20.1522 7.5815 0 -15.995 -26.413 -7.1415 0 -15.9456 26.364zm-103.1094 -13.2064l0 0 0 3.5216c0.1466,6.9462 4.0594,9.8805 10.1249,9.7338l19.9569 0 0 -5.4291 -19.908 0c-3.3262,0.0979 -3.5706,-2.2012 -3.6685,-4.5004l0 -6.7988c0.0979,-2.0545 0.3423,-4.4021 3.6685,-4.3531l19.908 0 0 -5.4296 -19.9569 0c-6.0655,-0.1468 -9.9294,2.8371 -10.1249,9.7338l0 3.5217zm75.7671 -7.5815l0 0 -0.0005 0 0 20.7879 -6.4564 0 0 -26.413 24.212 0c8.4136,0 10.5661,11.2009 4.6955,15.0655 2.4953,1.3693 2.9352,4.2064 3.082,5.234 0.1468,1.027 0.196,6.1141 0.196,6.1141l-6.3584 0 -0.1962 -5.4295c-0.196,-2.2991 -1.5656,-3.9623 -3.962,-3.9135l-12.2769 0 -1.2721 -5.6735 14.381 0c2.2499,0 3.3741,-0.9298 3.3741,-2.8859 0,-1.9078 -1.1242,-2.886 -3.3741,-2.886l-16.0439 0zm-26.2666 20.7879l0 0 5.625 0c6.9456,-0.1467 9.8805,-4.0595 9.7338,-10.1249l0 -16.337 -6.3588 0 0 17.6574c0.0979,3.3266 -2.2502,3.5707 -4.5003,3.669l-9.244 0c-2.0546,-0.0978 -4.4026,-0.3424 -4.3536,-3.669l0 -17.6574 -6.5054 0 0 16.386c-0.1467,6.0652 2.8369,9.9292 9.7337,10.0759l5.8697 0zm30.2291 -70.8756l0 0c-0.538,-9.8806 -3.9135,-17.1201 -8.511,-21.0819 -4.9895,-4.2553 -14.2831,-5.9186 -21.4737,-5.8696 -7.1899,-0.049 -16.4837,1.6143 -21.473,5.8696 -4.5977,3.9624 -7.9732,11.2014 -8.5111,21.0819 -0.4889,9.2934 1.5166,19.4185 6.7995,25.1414 5.0867,5.6251 15.261,7.3862 23.1358,7.3862 7.8753,0.049 18.0492,-1.7611 23.1365,-7.3862 5.2827,-5.7718 7.3367,-15.8967 6.8972,-25.1414zm-31.6964 -24.457l0 0c0.9782,-0.0488 1.2226,-0.0488 1.6628,-0.0488 0.4402,0 0.636,0 1.6634,0.0488l0.0489 21.6199c-0.2934,0 -3.1305,0 -3.4238,0 0,0 0,-21.6199 0.0488,-21.6199zm-24.3101 33.5543l0 0c-0.2934,-3.7173 -1.4187,-17.2663 3.9619,-24.9948 2.2991,-3.375 5.6742,-5.625 9.098,-6.7989 4.7449,-1.6628 10.4185,-1.7607 10.4185,-1.7607 -2.2009,5.4297 -6.75,17.0707 -7.6304,19.6632 -1.0759,3.1793 -2.0057,4.9893 -2.9347,10.7117 -0.5869,4.696 -1.6141,16.3863 -1.9079,21.4736 -6.3586,-3.0327 -10.1738,-8.8044 -11.0053,-18.2942zm25.9242 20.9355l0 0c-4.451,-0.0488 -9.9294,-0.489 -14.2826,-2.3479 1.4671,-3.9129 8.4615,-20.7394 12.3261,-27.2937 0.2936,0 3.6685,0 3.9618,0 3.8153,6.5543 10.8586,23.3808 12.3263,27.2937 -4.4026,1.9078 -9.8316,2.2991 -14.3317,2.3479zm25.9731 -20.9837l0 0c-0.8314,9.5384 -4.647,15.2608 -11.0056,18.3425 -0.2936,-5.0868 -1.3204,-16.777 -1.9074,-21.4731 -0.9297,-5.7718 -1.8588,-7.5325 -2.9347,-10.7117 -0.8803,-2.5925 -5.4296,-14.2341 -7.631,-19.6637 0,0 5.6741,0.0979 10.4191,1.7612 3.4238,1.1737 6.7988,3.4728 9.0978,6.7989 5.3803,7.728 4.2555,21.2775 3.9619,24.946z"/>
 </g>
</svg>
