<?xml version="1.0" encoding="UTF-8"?>
<!DOCTYPE svg PUBLIC "-//W3C//DTD SVG 1.1//EN" "http://www.w3.org/Graphics/SVG/1.1/DTD/svg11.dtd">
<!-- Creator: CorelDRAW 2019 (64-Bit) -->
<svg xmlns="http://www.w3.org/2000/svg" xml:space="preserve" width="188.237mm" height="96.504mm" version="1.1" style="shape-rendering:geometricPrecision; text-rendering:geometricPrecision; image-rendering:optimizeQuality; fill-rule:evenodd; clip-rule:evenodd"
viewBox="0 0 188.1406 96.4548"
 xmlns:xlink="http://www.w3.org/1999/xlink"
 xmlns:xodm="http://www.corel.com/coreldraw/odm/2003">
 <defs>
  <style type="text/css">
   <![CDATA[
    .fil0 {fill:black}
   ]]>
  </style>
 </defs>
 <g id="Layer_x0020_1">
  <metadata id="CorelCorpID_0Corel-Layer"/>
  <path class="fil0" d="M1.3637 94.69c2.8854,-3.2112 3.0155,-3.8827 3.2041,-16.7402l0.1663 -11.2496 4.2673 0.2231 0.1143 9.2502c0.0682,5.7663 -0.0478,10.1018 -0.3143,11.5137 -0.8743,4.6545 -3.6162,7.5943 -8.0636,8.6535 -1.0751,0.2548 -1.0639,0.2275 0.6259,-1.6508zm68.9845 -3.639l0 0c-5.4496,-0.8996 -7.9342,-1.9903 -9.9763,-4.3769 -2.7512,-3.2133 -3.2134,-8.2849 -1.1392,-12.5208 2.3664,-4.8319 7.4674,-7.5167 14.2334,-7.4892 3.1992,0.0134 4.6339,0.2454 6.7926,1.1017 1.2458,0.4942 1.4144,0.7128 1.4144,1.8423 0,0.7036 -0.0915,1.2801 -0.2007,1.2801 -0.1118,0 -1.0882,-0.4536 -2.1703,-1.0092 -2.646,-1.3547 -7.3687,-1.6761 -9.9787,-0.6784 -2.3844,0.9087 -4.8229,3.2381 -5.6566,5.3969 -1.0068,2.6119 -0.9089,6.9089 0.214,9.2181 1.0429,2.1453 3.2721,4.1536 5.2811,4.7553 1.7804,0.5328 6.44,0.5759 7.7674,0.0706 0.9632,-0.3668 0.9677,-0.3964 0.9677,-4.7391l0 -4.3698 2.1729 0.1135 2.1699 0.1137 0 9.8037 -2.3367 0.6308c-2.393,0.6442 -7.8653,1.1362 -9.5549,0.8565zm34.5522 -0.1573l0 0c-4.3654,-0.7814 -6.492,-2.2589 -7.5466,-5.2398 -0.4577,-1.3006 -0.5806,-3.4775 -0.5806,-10.3024l0 -8.6534 2.1727 0.1136 2.1699 0.1117 0.189 9.0611c0.2144,10.2977 0.3689,10.9169 3.0813,12.3015 2.1426,1.093 7.6353,0.9472 9.2321,-0.2437 2.803,-2.0946 3.1101,-3.4541 3.1422,-13.8748l0.0229 -7.4808 1.2253 0.1185 1.2272 0.1181 0 8.8724c0,8.3708 -0.0455,8.9561 -0.815,10.3815 -1.1048,2.0498 -2.6531,3.4454 -4.5729,4.1222 -2.0584,0.7264 -6.5405,1.0244 -8.9474,0.5942zm-76.5558 -12.1718l0 0 5.9503 -11.7985 1.2984 0c1.4597,0 1.1385,-0.5602 9.3088,16.3281l3.5143 7.2666 -5.2837 0 -2.9508 -6.4172 -11.7443 0 -1.5913 3.2088c-1.5781,3.1836 -1.6032,3.2085 -3.0221,3.2085l-1.4301 0 5.9504 -11.7962zm8.7312 -1.51l0 0c-1.2482,-2.7505 -2.3846,-5.1167 -2.5255,-5.2577 -0.1394,-0.1389 -1.3894,2.1108 -2.7761,5.0028l-2.5231 5.2555 10.0922 0 -2.2675 -5.0006zm92.9197 13.1145l0 0c0,-0.1042 2.6398,-5.4653 5.8643,-11.912l5.8633 -11.7234 1.3508 0.1166 1.3479 0.1158 5.6087 11.5162c3.0839,6.3305 5.6135,11.6412 5.6206,11.7959 0.0092,0.1552 -1.152,0.2826 -2.5827,0.2826l-2.5961 0 -1.3413 -3.113 -1.3386 -3.1155 -6.0145 -0.1024 -6.0114 -0.1049 -1.4691 3.2157c-1.4644,3.1993 -1.4778,3.2132 -2.8851,3.218 -0.7788,0.0023 -1.4168,-0.0822 -1.4168,-0.1894zm16.6102 -8.3137l0 0c0,-0.1121 -1.0518,-2.5027 -2.3384,-5.3156l-2.3412 -5.1144 -1.3046 2.5777c-0.7177,1.4191 -1.8696,3.81 -2.5599,5.3152l-1.2523 2.7369 4.8981 0c2.6939,0 4.8983,-0.0886 4.8983,-0.1998zm20.8529 -3.2908l0 0 0.1003 -11.7985 3.7754 -0.1117c7.3122,-0.2204 12.0761,0.9315 13.864,3.3502 2.0062,2.7119 1.4233,6.8727 -1.2887,9.193 -0.8658,0.7426 -1.7991,1.3484 -2.0749,1.3484 -0.2734,0 -0.4943,0.127 -0.4919,0.2844 0.0046,0.155 1.5349,2.3704 3.4023,4.9234l3.3958 4.6409 -2.7102 -0.1112 -2.7121 -0.1098 -6.0709 -8.8721 -4.7484 0 0 9.0593 -4.5408 0 0.1002 -11.7962zm11.6548 0.2411l0 0c3.3316,-1.9243 3.475,-7.4831 0.2436,-9.3911 -0.8354,-0.4943 -2.1815,-0.7677 -4.3333,-0.8791l-3.1246 -0.1636 0 11.5159 2.9673 -0.1707c2.0043,-0.1167 3.3842,-0.4123 4.247,-0.9114zm-27.0331 -18.395l0 0c-0.8313,-0.2733 -1.9354,-0.7381 -2.4549,-1.0342 -0.8853,-0.5033 -0.7513,-0.5486 2.2184,-0.7421 2.8576,-0.1872 3.2469,-0.3056 4.058,-1.2482 1.6211,-1.8853 0.8745,-3.6114 -2.1226,-4.9003 -2.266,-0.975 -0.5376,-0.6836 3.2156,0.5415 4.4679,1.462 7.6831,1.4212 11.5067,-0.1387 2.8287,-1.1544 2.0061,-0.3119 -1.1315,1.1571 -1.5238,0.7122 -2.8857,1.0155 -5.1103,1.1338l-3.0334 0.1591 0.1435 1.2436c0.1182,0.9974 -0.105,1.517 -1.1314,2.6374 -1.0342,1.127 -1.5993,1.4207 -2.9628,1.5389 -0.9268,0.08 -2.3638,-0.0774 -3.1953,-0.3479zm-10.9487 -6.1352l0 0c-4.7164,-2.6006 -5.8981,-2.8695 -13.9663,-3.1812 -8.139,-0.312 -10.0703,-0.7814 -14.2421,-3.4705 -2.9282,-1.8875 -6.8429,-5.8891 -8.5989,-8.7901 -3.0856,-5.0985 -4.4631,-5.6314 -13.59,-5.2583 -7.0027,0.2869 -13.4545,-0.2524 -17.7056,-1.4848l-3.0563 -0.8855 -1.9835 0.9811c-1.7034,0.8431 -2.4619,0.9795 -5.3808,0.9637 -2.8381,-0.014 -3.9263,-0.2098 -6.6068,-1.1933 -8.3162,-3.0495 -8.7259,-3.1703 -10.4952,-3.0559 -1.6605,0.1067 -1.7812,0.1865 -1.8969,1.2475 -0.1458,1.3531 -0.8203,2.2276 -0.8203,1.0658 0,-0.4325 -0.262,-1.004 -0.5849,-1.2704 -0.8225,-0.6832 -0.5308,-1.9495 0.5849,-2.5435 1.3985,-0.7427 5.2491,-0.3351 9.4394,1.0016 4.9735,1.5874 6.9659,1.9903 9.8629,1.9972 2.9485,0.0048 4.5657,-0.6942 5.6292,-2.4391 0.9017,-1.4778 0.97,-4.4703 0.173,-7.4394 -0.3047,-1.1408 -0.558,-2.1067 -0.5603,-2.1476 -0.0023,-0.0385 1.3962,0.6675 3.1084,1.5711 1.7146,0.9042 4.475,2.1249 6.1347,2.7149l3.0199 1.0727 -2.5277 0.109c-1.3934,0.0619 -3.4839,-0.1364 -4.6545,-0.4419 -1.9675,-0.5147 -2.1044,-0.5101 -1.8538,0.0776 0.148,0.3461 0.3531,1.6165 0.4529,2.8192 0.1825,2.1681 0.1982,2.1955 1.929,3.0513 5.5564,2.7487 8.4712,3.218 19.5186,3.1311l8.3322 -0.0658 1.5005 0.9951c1.1724,0.7742 1.8515,1.7173 3.099,4.2947 2.6165,5.4017 7.0757,9.1755 12.2517,10.3706 0.8746,0.2002 4.0557,0.3735 7.0663,0.3829 8.7946,0.025 13.1898,1.382 17.5549,5.4221 1.246,1.1519 2.1793,2.0881 2.0749,2.0811 -0.1026,-0.0092 -1.5468,-0.7654 -3.2087,-1.6829zm6.0186 -4.8982l0 0c1.2342,0.7398 2.302,1.3455 2.3774,1.3455 0.0728,0 -0.7813,-0.8923 -1.8947,-1.9832 -1.1159,-1.0884 -2.6781,-2.9604 -3.4703,-4.1559 -2.1456,-3.2315 -3.1383,-3.7026 -8.6195,-4.0919 -4.2718,-0.3054 -6.6702,-0.6879 -8.4256,-1.3485 -0.608,-0.2279 -0.6401,-0.1801 -0.2256,0.33 0.9699,1.1933 4.2813,2.2526 8.1615,2.6052 4.5637,0.417 5.6497,0.8063 6.6179,2.364 1.0703,1.7308 2.9354,3.4093 5.4789,4.9348zm11.9146 0.5486l0 0c2.2589,0.6832 6.0687,0.221 9.0747,-1.0977 2.9853,-1.3116 4.338,-1.2796 4.8667,0.112 0.314,0.8312 0.3205,0.8289 0.7992,-0.2006 0.6262,-1.3502 0.0315,-2.7347 -1.3164,-3.0739 -0.7427,-0.1872 -1.7809,0.1771 -4.2765,1.4981l-3.2974 1.7443 -3.2087 -0.1641c-2.7965,-0.1432 -3.7054,-0.3868 -7.0687,-1.8832 -2.1247,-0.9474 -5.8618,-2.8735 -8.3048,-4.2853 -12.4454,-7.1846 -17.8427,-10.1112 -28.0398,-15.2028 -24.5711,-12.2675 -42.641,-19.5961 -58.327,-23.6519 -9.7462,-2.5207 -15.1503,-3.4383 -22.4624,-3.8185 -9.4141,-0.4897 -19.0445,2.1109 -19.8597,5.3605 -0.1343,0.5352 -1.0726,1.7465 -2.0841,2.6939 -1.1198,1.0476 -1.8397,2.0451 -1.8397,2.5482 0,1.3642 2.2409,3.6209 3.9646,3.9945 0.8315,0.1773 1.9882,0.4396 2.5733,0.5807 1.0453,0.2501 1.0609,0.2297 0.8173,-1.0704 -0.1686,-0.8971 -0.0524,-1.7034 0.3602,-2.5027 0.8536,-1.6511 2.2452,-1.5577 3.1769,0.2117 0.6371,1.2113 0.5326,2.1564 -0.3643,3.2973 -0.6264,0.7952 -1.0157,0.9682 -1.7946,0.7975 -0.9637,-0.2122 -0.9951,-0.1621 -1.0752,1.6916 -0.1478,3.5528 2.0562,4.4224 4.921,1.9425 6.0782,-5.2607 11.7802,-5.3289 19.7325,-0.2412 1.125,0.7169 2.0426,1.1727 2.0426,1.0108 0,-0.4349 -2.958,-3.2018 -4.8846,-4.5682 -0.9223,-0.656 -2.8148,-1.5351 -4.2062,-1.9583 -2.3139,-0.7013 -2.6282,-0.9268 -3.6711,-2.6052 -0.6282,-1.011 -1.6781,-2.1134 -2.3318,-2.4526 -1.1589,-0.5987 -1.179,-0.5964 -0.7876,0.1364 0.221,0.4145 0.403,1.4574 0.403,2.3185 0,1.9354 -1.4707,3.5865 -3.5412,3.9758 -1.077,0.203 -1.6462,0.6331 -2.5255,1.911 -1.2981,1.8853 -2.3229,2.5569 -3.3863,2.22 -1.0589,-0.3346 -0.9425,-0.6104 0.9175,-2.1635 3.1383,-2.6234 4.0425,-6.2576 2.0178,-8.1091 -2.0444,-1.8719 -3.3749,-1.4645 -5.4654,1.6672 -1.8305,2.7442 -2.4339,3.1219 -3.7823,2.3681 -2.3161,-1.2959 -0.8836,-3.3568 3.2745,-4.7092 2.5004,-0.8133 5.0557,-2.9948 4.1857,-3.5731 -1.0906,-0.724 -3.1106,-0.4396 -4.1857,0.5876 -0.583,0.5602 -1.1159,0.8127 -1.2498,0.5964 -0.3825,-0.6167 1.5913,-1.8946 4.2602,-2.7574 1.9881,-0.6425 3.7532,-0.8425 8.6789,-0.9882 6.9821,-0.2053 7.4556,0.0339 3.805,1.9128 -1.6417,0.8471 -2.4613,1.0383 -4.0419,0.9448 -1.0905,-0.0634 -1.9814,0.0072 -1.9814,0.1569 0,0.5329 1.7262,1.3641 4.0516,1.9471 2.9442,0.7403 5.4264,1.9857 7.9885,4.0104 2.8145,2.2251 1.8782,0.6149 -1.6986,-2.9197l-2.7606 -2.7299 1.2115 -0.9135c1.9063,-1.4389 3.4273,-1.6761 7.2031,-1.1222 6.7796,0.9968 13.7932,3.8185 17.4187,7.009 0.9496,0.8378 1.7944,1.4552 1.8782,1.3729 0.0824,-0.084 -0.184,-0.8948 -0.5893,-1.8031 -0.4082,-0.9065 -0.6605,-1.7308 -0.5624,-1.8289 0.2412,-0.239 4.8274,0.8879 9.6511,2.375 7.1866,2.2159 28.4927,9.9427 28.2052,10.2295 -0.0684,0.0706 -1.366,0.3032 -2.8828,0.517 -4.0237,0.5715 -4.2063,0.9451 -0.4734,0.9748 2.9353,0.0252 3.5772,0.1684 6.173,1.3776 3.7712,1.7599 5.912,3.2495 9.3713,6.524 2.6642,2.5232 6.8586,5.8507 7.3733,5.8507 0.1278,0 -1.9447,-2.2933 -4.6088,-5.0991 -2.6625,-2.8054 -4.9006,-5.2784 -4.9734,-5.4947 -0.3008,-0.8994 18.8119,9.0653 30.3348,15.8131 6.7091,3.9281 14.6058,7.9314 17.1773,8.7079zm-140.4373 -42.8664l0 0c0,0.0729 -0.8495,0.8471 -1.8879,1.7214 -1.0358,0.8769 -1.8856,1.4255 -1.8856,1.2208 0,-0.4191 2.9901,-3.0722 3.4639,-3.0722 0.1709,0 0.3096,0.0595 0.3096,0.13zm3.6098 -1.082l0 0c-0.8861,0.6948 -1.8427,0.7562 -1.6282,0.1026 0.0839,-0.2572 0.6512,-0.5171 1.2568,-0.5736 1.0518,-0.098 1.0705,-0.0776 0.3714,0.471zm14.4215 27.0972l0 0c1.0273,1.0814 2.7575,1.3752 3.8646,0.6606 0.4461,-0.2893 0.355,-0.369 -0.4193,-0.3738 -1.5939,-0.0093 -2.9783,-1.3478 -2.9783,-2.8827 0,-2.8874 2.1494,-5.0257 6.0594,-6.028 2.7054,-0.6925 7.1004,-0.5602 14.2987,0.435 5.2378,0.7241 5.6131,0.6693 2.4821,-0.355 -3.172,-1.0366 -6.1777,-2.5301 -7.0639,-3.5096 -1.05,-1.1635 -1.8061,-3.3677 -1.8194,-5.3014 -0.0117,-1.6214 -0.0659,-1.735 -0.5353,-1.1135 -1.025,1.3508 -1.4346,4.1222 -0.8586,5.7959l0.5265 1.5255 -3.1523 0.2233c-4.8363,0.3417 -7.5371,1.2366 -9.4295,3.1289 -2.635,2.6345 -3.013,5.6519 -0.9749,7.7949zm-6.741 -29.1853l0 0c-0.7968,-0.4937 -0.3683,-0.6169 2.867,-0.8284 2.6625,-0.1732 2.8857,-0.1418 1.8883,0.2751 -1.5285,0.6378 -4.1285,0.9403 -4.7554,0.5533z"/>
 </g>
</svg>
