<?xml version="1.0" encoding="UTF-8"?>
<svg xmlns="http://www.w3.org/2000/svg" xmlns:xlink="http://www.w3.org/1999/xlink" width="155.63pt" height="69.67pt" viewBox="0 0 155.63 69.67" version="1.1">
<defs>
<clipPath id="clip1">
  <path d="M 60 54 L 79 54 L 79 69.671875 L 60 69.671875 Z M 60 54 "/>
</clipPath>
<clipPath id="clip2">
  <path d="M 90 54 L 111 54 L 111 69.671875 L 90 69.671875 Z M 90 54 "/>
</clipPath>
<clipPath id="clip3">
  <path d="M 0 54 L 10 54 L 10 69.671875 L 0 69.671875 Z M 0 54 "/>
</clipPath>
<clipPath id="clip4">
  <path d="M 21 54 L 24 54 L 24 69.671875 L 21 69.671875 Z M 21 54 "/>
</clipPath>
<clipPath id="clip5">
  <path d="M 34 54 L 52 54 L 52 69.671875 L 34 69.671875 Z M 34 54 "/>
</clipPath>
<clipPath id="clip6">
  <path d="M 120 54 L 130 54 L 130 69.671875 L 120 69.671875 Z M 120 54 "/>
</clipPath>
<clipPath id="clip7">
  <path d="M 142 54 L 155.628906 54 L 155.628906 69.671875 L 142 69.671875 Z M 142 54 "/>
</clipPath>
</defs>
<g id="surface1">
<g clip-path="url(#clip1)" clip-rule="nonzero">
<path style=" stroke:none;fill-rule:evenodd;fill:rgb(13.699341%,12.199402%,12.5%);fill-opacity:1;" d="M 76.171875 57.929688 C 75.023438 56.863281 73.125 56.269531 71.257813 56.269531 C 66.683594 56.269531 63.664063 58.871094 63.664063 62.171875 C 63.664063 65.222656 66.511719 67.824219 71.257813 67.824219 C 73.585938 67.824219 75.367188 67.089844 76.578125 65.878906 L 78.90625 67.125 C 78.300781 67.722656 75.855469 69.671875 71.199219 69.671875 C 64.726563 69.671875 60.730469 65.816406 60.730469 62.171875 C 60.730469 57.664063 65.070313 54.425781 71.339844 54.425781 C 74.015625 54.425781 76.835938 55.144531 78.472656 56.675781 L 76.171875 57.929688 "/>
</g>
<g clip-path="url(#clip2)" clip-rule="nonzero">
<path style=" stroke:none;fill-rule:evenodd;fill:rgb(13.699341%,12.199402%,12.5%);fill-opacity:1;" d="M 100.765625 67.824219 C 96.421875 67.824219 93.609375 65.222656 93.609375 62.046875 C 93.609375 58.871094 96.421875 56.269531 100.765625 56.269531 C 105.109375 56.269531 107.921875 58.871094 107.921875 62.046875 C 107.921875 65.222656 105.109375 67.824219 100.765625 67.824219 Z M 100.765625 69.671875 C 106.554688 69.671875 110.65625 66.351563 110.65625 62.046875 C 110.65625 57.746094 106.554688 54.425781 100.765625 54.425781 C 94.972656 54.425781 90.875 57.746094 90.875 62.046875 C 90.875 66.351563 94.972656 69.671875 100.765625 69.671875 "/>
</g>
<g clip-path="url(#clip3)" clip-rule="nonzero">
<path style=" stroke:none;fill-rule:evenodd;fill:rgb(13.699341%,12.199402%,12.5%);fill-opacity:1;" d="M 0 54.792969 L 2.101563 54.792969 L 2.101563 67.457031 L 9.210938 67.457031 L 9.210938 69.300781 L 0 69.300781 L 0 54.792969 "/>
</g>
<g clip-path="url(#clip4)" clip-rule="nonzero">
<path style=" stroke:none;fill-rule:evenodd;fill:rgb(13.699341%,12.199402%,12.5%);fill-opacity:1;" d="M 21.75 54.792969 L 23.851563 54.792969 L 23.851563 69.300781 L 21.75 69.300781 L 21.75 54.792969 "/>
</g>
<g clip-path="url(#clip5)" clip-rule="nonzero">
<path style=" stroke:none;fill-rule:evenodd;fill:rgb(13.699341%,12.199402%,12.5%);fill-opacity:1;" d="M 34.527344 54.792969 L 38.042969 54.792969 L 48.925781 66.71875 L 48.984375 66.71875 L 48.984375 54.792969 L 51.664063 54.792969 L 51.664063 69.300781 L 48.257813 69.300781 L 37.261719 57.375 L 37.207031 57.375 L 37.207031 69.300781 L 34.527344 69.300781 L 34.527344 54.792969 "/>
</g>
<g clip-path="url(#clip6)" clip-rule="nonzero">
<path style=" stroke:none;fill-rule:evenodd;fill:rgb(13.699341%,12.199402%,12.5%);fill-opacity:1;" d="M 120.4375 54.792969 L 122.539063 54.792969 L 122.539063 67.457031 L 129.648438 67.457031 L 129.648438 69.300781 L 120.4375 69.300781 L 120.4375 54.792969 "/>
</g>
<g clip-path="url(#clip7)" clip-rule="nonzero">
<path style=" stroke:none;fill-rule:evenodd;fill:rgb(13.699341%,12.199402%,12.5%);fill-opacity:1;" d="M 142.191406 54.792969 L 144.945313 54.792969 L 153.480469 66.71875 L 153.523438 66.71875 L 153.523438 54.792969 L 155.625 54.792969 L 155.625 69.300781 L 152.953125 69.300781 L 144.335938 57.375 L 144.285156 57.375 L 144.285156 69.300781 L 142.191406 69.300781 L 142.191406 54.792969 "/>
</g>
<path style=" stroke:none;fill-rule:evenodd;fill:rgb(13.699341%,12.199402%,12.5%);fill-opacity:1;" d="M 75.804688 21.25 C 75.78125 15.71875 75.46875 9.476563 74.59375 3.730469 C 74.59375 3.730469 72.773438 3.515625 70.40625 3.480469 C 70.242188 1.226563 70.113281 -0.00390625 70.113281 -0.00390625 L 69.523438 -0.00390625 C 69.523438 -0.00390625 69.394531 1.226563 69.230469 3.480469 C 66.863281 3.515625 65.042969 3.730469 65.042969 3.730469 C 64.164063 9.476563 63.851563 15.71875 63.828125 21.25 C 61.882813 21.476563 60.332031 21.695313 60.332031 21.695313 L 60.332031 22.265625 C 60.332031 22.265625 61.882813 22.488281 63.828125 22.714844 C 63.851563 28.246094 64.164063 34.488281 65.042969 40.234375 C 65.042969 40.234375 66.863281 40.453125 69.230469 40.484375 C 69.394531 42.734375 69.523438 43.964844 69.523438 43.964844 L 70.113281 43.964844 C 70.113281 43.964844 70.242188 42.734375 70.40625 40.484375 C 72.773438 40.453125 74.59375 40.234375 74.59375 40.234375 C 75.46875 34.488281 75.78125 28.246094 75.804688 22.714844 C 77.753906 22.488281 79.304688 22.265625 79.304688 22.265625 L 79.304688 21.695313 C 79.304688 21.695313 77.753906 21.476563 75.804688 21.25 Z M 73.285156 5.425781 C 74.050781 10.8125 74.246094 17.570313 74.269531 21.082031 C 73.15625 20.96875 72.015625 20.871094 71.027344 20.820313 C 71.003906 14.320313 70.765625 9.042969 70.539063 5.425781 Z M 66.351563 5.425781 L 69.097656 5.425781 C 68.875 9.042969 68.632813 14.320313 68.609375 20.820313 C 67.621094 20.871094 66.476563 20.96875 65.367188 21.082031 C 65.390625 17.570313 65.582031 10.8125 66.351563 5.425781 Z M 66.351563 38.535156 C 65.582031 33.152344 65.390625 26.394531 65.367188 22.882813 C 66.476563 22.996094 67.621094 23.09375 68.609375 23.144531 C 68.632813 29.644531 68.875 34.917969 69.097656 38.535156 L 66.351563 38.535156 L 73.285156 38.535156 L 70.539063 38.535156 C 70.765625 34.917969 71.003906 29.644531 71.027344 23.144531 C 72.015625 23.09375 73.15625 22.996094 74.269531 22.882813 C 74.246094 26.394531 74.050781 33.152344 73.285156 38.535156 L 66.351563 38.535156 "/>
</g>
</svg>
