<?xml version="1.0" encoding="UTF-8" standalone="no"?>
<!-- Created with Inkscape (http://www.inkscape.org/) -->

<svg
   version="1.1"
   id="svg132"
   width="261.67599"
   height="391.31201"
   viewBox="0 0 261.676 391.31201"
   xmlns="http://www.w3.org/2000/svg"
   xmlns:svg="http://www.w3.org/2000/svg">
  <defs
     id="defs136">
    <radialGradient
       fx="0"
       fy="0"
       cx="0"
       cy="0"
       r="1"
       gradientUnits="userSpaceOnUse"
       gradientTransform="matrix(111.68698,0,0,-163.64824,144.62207,173.99609)"
       spreadMethod="pad"
       id="radialGradient162">
      <stop
         style="stop-opacity:1;stop-color:#ffffff"
         offset="0"
         id="stop156" />
      <stop
         style="stop-opacity:1;stop-color:#ffffff"
         offset="0.67807152"
         id="stop158" />
      <stop
         style="stop-opacity:1;stop-color:#5e707b"
         offset="1"
         id="stop160" />
    </radialGradient>
    <clipPath
       clipPathUnits="userSpaceOnUse"
       id="clipPath172">
      <path
         d="M 0,350 H 350 V 0 H 0 Z"
         id="path170" />
    </clipPath>
    <clipPath
       clipPathUnits="userSpaceOnUse"
       id="clipPath184">
      <path
         d="M 78.1509,320.742 H 272.408 V 29.2578 H 78.1509 Z"
         id="path182" />
    </clipPath>
    <radialGradient
       fx="0"
       fy="0"
       cx="0"
       cy="0"
       r="1"
       gradientUnits="userSpaceOnUse"
       gradientTransform="matrix(117.23346,0,0,-170.26285,123.2793,171.25586)"
       spreadMethod="pad"
       id="radialGradient214">
      <stop
         style="stop-opacity:1;stop-color:#3a5382"
         offset="0"
         id="stop208" />
      <stop
         style="stop-opacity:1;stop-color:#3a5382"
         offset="0.13155998"
         id="stop210" />
      <stop
         style="stop-opacity:1;stop-color:#000538"
         offset="1"
         id="stop212" />
    </radialGradient>
    <clipPath
       clipPathUnits="userSpaceOnUse"
       id="clipPath224">
      <path
         d="M 0,350 H 350 V 0 H 0 Z"
         id="path222" />
    </clipPath>
  </defs>
  <g
     id="g140"
     transform="matrix(1.3333333,0,0,-1.3333333,-102.86773,428.98959)">
    <path
       d="M 0.279,0 H 350 V 350 H 0.279 Z"
       style="display:none;fill:#ffffff;fill-opacity:1;fill-rule:nonzero;stroke:none"
       id="path142" />
    <g
       id="g144">
      <g
         id="g146">
        <g
           id="g152">
          <g
             id="g154">
            <path
               d="m 77.651,175.004 c 0,-80.641 43.796,-146.246 97.629,-146.246 v 0 c 53.832,0 97.628,65.605 97.628,146.246 v 0 c 0,80.637 -43.796,146.238 -97.628,146.238 v 0 c -53.833,0 -97.629,-65.601 -97.629,-146.238"
               style="fill:url(#radialGradient162);stroke:none"
               id="path164" />
          </g>
        </g>
      </g>
    </g>
    <g
       id="g166">
      <g
         id="g168"
         clip-path="url(#clipPath172)">
        <g
           id="g174"
           transform="translate(175.2808,321.7422)">
          <path
             d="m 0,0 c -26.292,0 -50.979,-15.317 -69.515,-43.131 -18.453,-27.688 -28.615,-64.483 -28.615,-103.607 0,-39.128 10.162,-75.926 28.615,-103.616 18.536,-27.813 43.223,-43.13 69.515,-43.13 26.287,0 50.972,15.317 69.509,43.13 18.454,27.692 28.618,64.49 28.618,103.616 0,39.122 -10.164,75.917 -28.618,103.607 C 50.972,-15.317 26.287,0 0,0 m 0,-1 c 53.635,0 97.127,-65.249 97.127,-145.738 0,-80.499 -43.492,-145.746 -97.127,-145.746 -53.648,0 -97.13,65.247 -97.13,145.746 C -97.13,-66.249 -53.648,-1 0,-1"
             style="fill:#231f20;fill-opacity:1;fill-rule:nonzero;stroke:none"
             id="path176" />
        </g>
        <g
           id="g178">
          <g
             id="g180" />
          <g
             id="g192">
            <g
               clip-path="url(#clipPath184)"
               opacity="0.75"
               id="g190">
              <g
                 transform="translate(175.4399,36.7715)"
                 id="g188">
                <path
                   d="m 0,0 c -49.229,0 -89.126,61.531 -89.126,137.427 0,75.896 39.897,137.419 89.126,137.419 49.218,0 89.119,-61.523 89.119,-137.419 C 89.119,61.531 49.218,0 0,0 m -0.159,283.971 c -53.649,0 -97.13,-65.249 -97.13,-145.739 0,-80.499 43.481,-145.746 97.13,-145.746 53.635,0 97.127,65.247 97.127,145.746 0,80.49 -43.492,145.739 -97.127,145.739"
                   style="fill:#ffffff;fill-opacity:1;fill-rule:nonzero;stroke:none"
                   id="path186" />
              </g>
            </g>
          </g>
        </g>
        <path
           d="m 162.296,162.171 h 26.188 v -6.461 h -26.188 z m 3.188,-8.984 h 19.815 V 146 h -19.815 z m -29.006,38.977 h 77.844 v -3.238 h -77.844 z m -4.143,-6.116 h 86.12 v -3.238 h -86.12 z m -0.115,12.146 h 86.125 v -3.242 H 132.22 Z m 56.762,-22.349 c -4.312,-3.938 -4.285,-11.022 -4.285,-11.022 H 166.12 c 0,0 0.026,7.084 -4.285,11.012 -3.027,2.763 -6.708,3.339 -6.708,3.339 -2.409,0.486 -2.409,0.761 -2.409,0.929 h 45.335 c 0,0 0,-0.443 -2.399,-0.929 0,0 -3.656,-0.576 -6.672,-3.329 m -52.132,4.248 9.338,0.01 c 0,-5.55 -3.577,-8.029 -9.338,-6.788 z m 33.129,89.279 c 3.726,7.363 4.433,18.436 5.38,18.622 0.93,-0.177 1.647,-11.259 5.373,-18.622 3.514,-6.939 11.063,-12.825 10.629,-13.517 -0.529,-0.857 -4.716,1.302 -6.814,2.285 -3.373,1.576 -6.108,2.805 -6.108,2.805 0,0 -1.335,-17.657 2.948,-33.872 3.521,-13.302 11.939,-25.427 12.701,-26.481 h -10.736 c -0.336,0.557 -0.663,1.115 -0.981,1.682 -2.922,5.124 -5,9.593 -7.03,17.249 -2.025,-7.656 -4.09,-12.134 -7.008,-17.258 -0.31,-0.558 -0.647,-1.116 -0.984,-1.673 h -10.736 c 0.77,1.054 9.188,13.179 12.702,26.472 4.293,16.224 2.946,33.873 2.946,33.873 0,0 -2.733,-1.231 -6.097,-2.806 -2.107,-0.982 -6.285,-3.142 -6.825,-2.276 -0.433,0.682 7.116,6.578 10.64,13.517 m -33.501,-68.77 c -0.054,1.298 -0.717,19.133 -4.903,33.154 -4.593,15.374 -13.808,24.508 -13.189,25.437 0.567,0.859 8.197,-0.699 13.913,-4.637 6.1,-4.197 12.09,-11.135 11.649,-11.657 -0.274,-0.319 -2.328,1.407 -6.044,2.788 -3.947,1.477 -5.684,1.195 -5.684,1.195 0,0 6.559,-10.842 9.807,-22.597 2.719,-9.841 4.134,-22.578 4.204,-23.683 z m 77.868,0 c 0.047,1.298 0.72,19.133 4.904,33.154 4.586,15.374 13.801,24.508 13.18,25.437 -0.567,0.859 -8.188,-0.699 -13.905,-4.637 -6.109,-4.197 -12.099,-11.135 -11.648,-11.657 0.266,-0.319 2.328,1.407 6.045,2.788 3.939,1.477 5.672,1.195 5.672,1.195 0,0 -6.547,-10.842 -9.795,-22.597 -2.727,-9.841 -4.145,-22.578 -4.215,-23.683 z m -0.369,-20.509 -9.35,0.01 c 0,-5.55 3.588,-8.029 9.35,-6.788 z"
           style="fill:#e01b22;fill-opacity:1;fill-rule:evenodd;stroke:none"
           id="path194" />
      </g>
    </g>
    <g
       id="g196">
      <g
         id="g198">
        <g
           id="g204">
          <g
             id="g206">
            <path
               d="M 94.582,146 C 102.89,87.332 135.86,43.512 175.28,43.512 v 0 c 39.411,0 72.387,43.82 80.696,102.488 v 0 z"
               style="fill:url(#radialGradient214);stroke:none"
               id="path216" />
          </g>
        </g>
      </g>
    </g>
    <g
       id="g218">
      <g
         id="g220"
         clip-path="url(#clipPath224)">
        <g
           id="g226"
           transform="translate(123.2759,132.168)">
          <path
             d="m 0,0 -5.849,-14.949 h -0.966 l -5.669,14.938 -0.616,-11.532 c -0.036,-0.203 -0.071,-0.78 -0.071,-1.214 0,-1.026 1.339,-1.079 2.067,-1.079 h 0.184 v -1.113 h -6.585 v 1.104 c 0.528,0.036 2.016,0.009 2.467,0.568 0.325,0.398 0.392,1.149 0.525,2.789 l 0.546,10.849 c 0.072,0.912 -0.012,1.267 -0.248,1.452 -0.387,0.282 -1.591,0.301 -2.006,0.329 v 1.095 h 5.606 L -5.538,-9.978 -0.343,3.237 H 5.183 V 2.122 H 4.997 C 3.821,2.122 3.316,2.114 3.076,1.841 2.828,1.574 2.796,0.999 2.891,-0.417 l 0.593,-10.525 c 0.036,-0.601 0.061,-1.867 0.415,-2.39 0.444,-0.637 1.592,-0.521 2.213,-0.494 v -1.123 h -8.07 v 1.096 c 0.586,0.054 1.455,0.087 1.995,0.318 0.397,0.178 0.629,0.461 0.629,1.072 0,0.274 -0.036,1.044 -0.071,1.327 L 0,0"
             style="fill:#ffffff;fill-opacity:1;fill-rule:nonzero;stroke:none"
             id="path228" />
        </g>
        <g
           id="g230"
           transform="translate(160.0386,135.4941)">
          <path
             d="M 0,0 H 0.938 L 1.346,-4.479 H 0.302 c -0.575,1.664 -1.648,3.728 -3.779,3.728 -1.409,0 -2.825,-1.17 -2.825,-2.435 0,-0.778 0.203,-1.32 0.886,-2 1.009,-1.037 2.584,-2.073 3.762,-2.92 1.884,-1.391 3.327,-2.938 3.327,-5.516 0,-2.816 -2.479,-5.265 -5.603,-5.265 -1.133,0 -2.169,0.381 -3.239,0.706 l -0.212,0.055 -0.203,0.008 c -0.319,0 -0.284,-0.114 -0.319,-0.362 h -0.92 l -0.523,4.796 h 1.088 c 0.54,-1.68 1.921,-3.965 4.036,-3.965 1.009,0 3.381,0.718 3.381,2.964 0,1.029 -0.352,1.782 -1.018,2.508 -0.68,0.734 -1.681,1.423 -3,2.326 -3.329,2.276 -3.964,3.966 -3.964,5.603 0,2.753 2.708,4.734 4.973,4.734 0.877,0 1.717,-0.167 2.434,-0.416 l 0.575,-0.263 0.32,-0.124 0.141,-0.054 c 0.157,0 0.301,0.247 0.38,0.371"
             style="fill:#ffffff;fill-opacity:1;fill-rule:nonzero;stroke:none"
             id="path232" />
        </g>
        <g
           id="g234"
           transform="translate(138.4077,134.6719)">
          <path
             d="m 0,0 -0.433,1.326 h 3.062 l 5.114,-15.373 c 0.603,-1.789 0.541,-2.169 2.673,-2.309 v -1.107 H 2.302 v 1.114 c 0.557,0.019 1.309,0.019 1.84,0.194 0.407,0.143 0.636,0.382 0.636,0.851 0,0.541 -0.247,1.414 -0.512,2.204 l -1.062,3.345 h -5.089 c -0.541,-1.522 -1.373,-3.565 -1.469,-5.221 -0.053,-1.018 0.619,-1.16 1.407,-1.257 l 0.982,-0.107 0.168,-1.123 h -6.745 v 1.089 c 1.408,0.3 1.885,0.629 2.409,1.894 0.157,0.399 0.326,0.876 0.522,1.46 L 0,0 M 0.751,-1.689 -1.62,-8.453 h 4.55 z"
             style="fill:#ffffff;fill-opacity:1;fill-rule:nonzero;stroke:none"
             id="path236" />
        </g>
        <g
           id="g238"
           transform="translate(174.563,134.0869)">
          <path
             d="m 0,0 h -3.841 v -6.947 h 3.39 c 0.718,0 1.07,0.009 1.293,0.22 0.395,0.371 0.451,1.54 0.496,1.992 h 1.06 v -5.913 h -1.07 c -0.071,2.063 0.01,2.382 -2.037,2.382 h -3.132 v -5.711 c 0,-0.927 0.035,-1.254 0.187,-1.406 0.203,-0.211 1.043,-0.168 1.291,-0.168 h 2.806 c 2.283,0 2.566,1.214 3.072,3.399 H 4.566 L 4.169,-16.868 H -9.497 v 1.123 c 2.125,-0.107 2.62,0.124 2.62,2.177 v 11.585 c 0,2.169 -0.637,2.222 -2.62,2.186 V 1.318 H 3.515 L 3.673,-2.948 H 2.646 C 2.292,-0.752 2.212,0 0,0"
             style="fill:#ffffff;fill-opacity:1;fill-rule:nonzero;stroke:none"
             id="path240" />
        </g>
        <g
           id="g242"
           transform="translate(218.0469,131.0596)">
          <path
             d="m 0,0 h -0.973 l 0.354,4.921 H 0.195 C 0.309,4.692 0.398,4.515 0.656,4.417 0.77,4.391 0.895,4.373 1.07,4.355 L 1.744,4.346 h 10.231 c 0.621,0 0.92,0.035 1.097,0.106 0.203,0.089 0.256,0.285 0.338,0.469 h 0.813 L 14.621,0 H 13.604 C 13.471,0.62 13.205,2.116 12.646,2.675 12.33,3 11.92,3.027 11.205,3.027 H 8.33 v -13.365 c 0,-1.229 0.098,-1.725 0.441,-1.982 0.495,-0.37 2.098,-0.39 2.586,-0.416 v -1.105 H 2.258 v 1.105 c 0.459,0.026 2.138,0.046 2.627,0.398 0.32,0.238 0.398,0.682 0.398,1.842 V 3.027 H 2.744 C 1.697,3.027 0.99,3.089 0.611,2.063 0.371,1.391 0.195,0.672 0,0"
             style="fill:#ffffff;fill-opacity:1;fill-rule:nonzero;stroke:none"
             id="path244" />
        </g>
        <g
           id="g246"
           transform="translate(235.4473,135.4053)">
          <path
             d="M 0,0 H 8.504 V -1.105 C 5.584,-1.239 5.771,-1.716 5.771,-4.521 v -9.951 c 0.168,-2.37 0.549,-2.45 2.842,-2.618 v -1.097 H 0.107 v 1.097 c 0.592,0.054 1.264,0.062 1.84,0.23 0.231,0.068 0.285,0.142 0.399,0.345 0.345,0.692 0.39,2.053 0.39,3.751 v 9.056 c 0,2.329 -0.513,2.451 -2.736,2.612 V 0"
             style="fill:#ffffff;fill-opacity:1;fill-rule:nonzero;stroke:none"
             id="path248" />
        </g>
        <g
           id="g250"
           transform="translate(209.2578,135.998)">
          <path
             d="m 0,0 5.107,-15.373 c 0.602,-1.789 0.549,-2.169 2.672,-2.31 v -1.106 h -8.107 v 1.114 c 0.744,0.027 2.478,-0.096 2.478,1.045 0,0.541 -0.246,1.414 -0.504,2.204 l -1.07,3.345 h -5.097 c -0.586,-1.654 -1.321,-3.441 -1.461,-5.231 -0.114,-1.441 1.593,-1.336 2.556,-1.363 v -1.114 h -6.549 c -2.548,-0.107 -4.591,0.618 -6.185,3.382 -0.408,0.689 -1.887,3.654 -2.348,4.45 h -2.168 l 0.028,-3.893 c 0,-2.444 0.222,-2.806 1.673,-2.806 h 1.301 v -1.143 h -8.844 v 1.151 c 2.178,-0.115 2.745,0.133 2.745,2.248 v 12.038 c 0,1.15 0.025,1.627 -1.116,1.708 -0.539,0.043 -1.088,0.037 -1.629,0.037 v 1.096 c 2.291,0.054 4.612,0.044 6.905,0.044 1.398,0 2.734,0.08 4.097,-0.344 1.649,-0.524 3.133,-1.743 3.133,-4.482 0,-3.307 -1.875,-4.38 -3.17,-4.927 0.612,-0.622 0.959,-1.124 2.205,-4.038 1.248,-2.902 1.752,-3.308 3.241,-3.531 1.691,0.062 2.044,1.08 2.877,3.453 L -2.627,-1.336 -3.061,0 H 0 m -1.877,-3.016 -2.361,-6.763 h 4.549 z m -18.832,-6.638 h 1.918 c 0.752,0.025 1.443,0.015 2.107,0.449 0.717,0.453 1.354,1.435 1.354,3.611 0,3.365 -1.963,3.933 -3.496,3.94 -0.592,0 -1.416,-0.027 -1.883,-0.034 z"
             style="fill:#ffffff;fill-opacity:1;fill-rule:nonzero;stroke:none"
             id="path252" />
        </g>
        <g
           id="g254"
           transform="translate(86.314,174.1982)">
          <path
             d="m 0,0 c 0,75.896 39.896,137.419 89.126,137.419 49.218,0 89.119,-61.523 89.119,-137.419 0,-75.896 -39.901,-137.427 -89.119,-137.427 C 39.896,-137.427 0,-75.896 0,0 Z"
             style="fill:none;stroke:#00295e;stroke-width:2.175;stroke-linecap:butt;stroke-linejoin:miter;stroke-miterlimit:3.864;stroke-dasharray:none;stroke-opacity:1"
             id="path256" />
        </g>
      </g>
    </g>
  </g>
</svg>
